<?xml version="1.0" encoding="utf-8"?>
<!-- Generator: Adobe Illustrator 27.5.0, SVG Export Plug-In . SVG Version: 6.00 Build 0)  -->
<svg version="1.1" id="Layer_1" xmlns="http://www.w3.org/2000/svg" xmlns:xlink="http://www.w3.org/1999/xlink" x="0px" y="0px"
	 viewBox="0 0 500 500" style="enable-background:new 0 0 500 500;" xml:space="preserve">
<g id="XMLID_1253_">
	<path id="XMLID_892_" style="fill:#F2F1F7;" d="M180.006,113.616C52.504,188.486,40.521,239,65.6,308.41
		c35.034,96.961,30.782,135.566,160.795,114.021c130.146-21.567,177.198,11.577,199.667-57.346
		c30.543-93.692,28.926-194.806-39.488-231.7C338.966,107.712,280.02,54.887,180.006,113.616z"/>
	<g id="XMLID_1047_">
		<g id="XMLID_890_">
			<g id="XMLID_944_">
				<g id="XMLID_946_">
					<path style="fill:#EED1C9;" d="M346.79,134.091v249.08c0,12.925-5.849,23.403-13.065,23.405l-219.064,0.082
						c-7.217,0.003-13.069-10.475-13.071-23.401l-0.025-249.163c-0.001-12.928,5.85-23.409,13.068-23.41l219.089,0
						C340.939,110.686,346.79,121.165,346.79,134.091z"/>
					<path style="fill:#D0AB9E;" d="M114.657,407.88c-3.952,0-7.611-2.655-10.304-7.477c-2.569-4.599-3.983-10.688-3.984-17.145
						l-0.024-249.162c-0.001-6.457,1.413-12.547,3.981-17.148c2.694-4.825,6.354-7.483,10.307-7.483h219.089
						c8.013,0,14.289,10.817,14.289,24.626v249.08c0,13.807-6.275,24.624-14.285,24.626l-219.065,0.082
						C114.66,407.88,114.659,407.88,114.657,407.88z M114.633,111.907c-3.029,0-5.932,2.213-8.175,6.231
						c-2.368,4.243-3.672,9.91-3.672,15.958l0.024,249.162c0.001,6.047,1.306,11.713,3.674,15.954
						c2.243,4.015,5.145,6.226,8.173,6.226c0.002,0,219.067-0.082,219.067-0.082c6.42-0.002,11.845-10.161,11.845-22.185v-249.08
						c0-12.025-5.425-22.184-11.847-22.184H114.633z"/>
				</g>
				<g id="XMLID_945_">
					<path style="fill:#444244;" d="M346.788,133.732H101.592c0-12.728,5.761-23.046,12.867-23.046h219.462
						C341.028,110.686,346.788,121.004,346.788,133.732L346.788,133.732z"/>
					<path style="fill:#444244;" d="M348.141,135.085H100.239v-1.353c0-13.682,6.246-24.399,14.22-24.399h219.462
						c7.974,0,14.22,10.717,14.22,24.399V135.085z M102.969,132.378h242.443c-0.386-11.157-5.491-20.339-11.491-20.339H114.459
						C108.459,112.039,103.355,121.222,102.969,132.378z"/>
				</g>
			</g>
			<g id="XMLID_940_">
				<path id="XMLID_943_" style="fill:#FEFFFF;" d="M118.144,122.48c0,1.575-0.97,2.852-2.167,2.852
					c-1.197,0-2.167-1.277-2.167-2.852c0-1.575,0.97-2.852,2.167-2.852C117.174,119.628,118.144,120.905,118.144,122.48z"/>
				<path id="XMLID_942_" style="fill:#FEFFFF;" d="M124.912,122.48c0,1.575-0.97,2.852-2.167,2.852s-2.167-1.277-2.167-2.852
					c0-1.575,0.97-2.852,2.167-2.852S124.912,120.905,124.912,122.48z"/>
				<path id="XMLID_941_" style="fill:#FEFFFF;" d="M131.679,122.48c0,1.575-0.97,2.852-2.167,2.852
					c-1.197,0-2.167-1.277-2.167-2.852c0-1.575,0.97-2.852,2.167-2.852C130.709,119.628,131.679,120.905,131.679,122.48z"/>
			</g>
		</g>
		<g id="XMLID_1040_">
			<g id="XMLID_905_">
				<g id="XMLID_893_">
					<path style="fill:#FFFFFF;" d="M242.858,254.113H119.1c-2.922,0-5.29-2.368-5.29-5.29V159.45c0-2.922,2.369-5.29,5.29-5.29
						h123.758c2.922,0,5.29,2.368,5.29,5.29v89.372C248.148,251.744,245.779,254.113,242.858,254.113z"/>
					<path style="fill:#EEE4D9;" d="M242.858,254.723H119.1c-3.254,0-5.9-2.647-5.9-5.901V159.45c0-3.254,2.647-5.901,5.9-5.901
						h123.758c3.254,0,5.901,2.647,5.901,5.901v89.372C248.759,252.076,246.111,254.723,242.858,254.723z M119.1,154.77
						c-2.58,0-4.68,2.099-4.68,4.68v89.372c0,2.581,2.1,4.68,4.68,4.68h123.758c2.581,0,4.68-2.099,4.68-4.68V159.45
						c0-2.581-2.1-4.68-4.68-4.68H119.1z"/>
				</g>
				<g id="XMLID_894_">
					<path style="fill:#444244;" d="M248.148,159.127H113.809c0-2.743,2.224-4.967,4.967-4.967h124.404
						C245.924,154.16,248.148,156.384,248.148,159.127L248.148,159.127z"/>
					<path style="fill:#444244;" d="M248.759,159.738h-135.56v-0.61c0-3.075,2.502-5.578,5.577-5.578h124.404
						c3.075,0,5.578,2.502,5.578,5.578V159.738z M114.462,158.517h133.033c-0.297-2.115-2.119-3.747-4.314-3.747H118.777
						C116.582,154.77,114.76,156.402,114.462,158.517z"/>
				</g>
				<g id="XMLID_900_">
					<path id="XMLID_904_" style="fill:#BEC0C2;" d="M242.355,157.983h1.674c0.277,0,0.502-0.225,0.502-0.502v-1.675
						c0-0.277-0.225-0.502-0.502-0.502h-1.674c-0.277,0-0.502,0.225-0.502,0.502v1.675
						C241.854,157.758,242.078,157.983,242.355,157.983z"/>
					<g id="XMLID_901_">
						<g id="XMLID_903_">
							<path style="fill:#FFFFFF;" d="M242.412,157.73c-0.078,0-0.156-0.03-0.216-0.089c-0.119-0.119-0.119-0.312,0-0.432
								l1.562-1.562c0.119-0.119,0.312-0.119,0.432,0c0.119,0.119,0.119,0.312,0,0.432l-1.562,1.562
								C242.568,157.7,242.49,157.73,242.412,157.73z"/>
						</g>
						<g id="XMLID_902_">
							<path style="fill:#FFFFFF;" d="M243.974,157.73c-0.078,0-0.156-0.03-0.216-0.089l-1.562-1.562
								c-0.119-0.119-0.119-0.312,0-0.432c0.119-0.119,0.312-0.119,0.432,0l1.562,1.562c0.119,0.119,0.119,0.312,0,0.432
								C244.13,157.7,244.052,157.73,243.974,157.73z"/>
						</g>
					</g>
				</g>
			</g>
			<g id="XMLID_1039_">
				<g id="XMLID_978_">
					<g id="XMLID_951_">
						<g id="XMLID_936_">
							<path style="fill:#EEE4D9;" d="M134.05,167.431h-13.242c-0.169,0-0.305-0.137-0.305-0.305c0-0.169,0.137-0.305,0.305-0.305
								h13.242c0.169,0,0.305,0.137,0.305,0.305C134.355,167.295,134.218,167.431,134.05,167.431z"/>
						</g>
						<g id="XMLID_938_">
							<path style="fill:#EEE4D9;" d="M134.05,241.452h-13.242c-0.169,0-0.305-0.137-0.305-0.305c0-0.169,0.137-0.305,0.305-0.305
								h13.242c0.169,0,0.305,0.137,0.305,0.305C134.355,241.315,134.218,241.452,134.05,241.452z"/>
						</g>
						<g id="XMLID_937_">
							<path style="fill:#EEE4D9;" d="M120.808,241.452c-0.169,0-0.305-0.137-0.305-0.305v-74.02c0-0.169,0.137-0.305,0.305-0.305
								c0.169,0,0.305,0.137,0.305,0.305v74.02C121.113,241.315,120.976,241.452,120.808,241.452z"/>
						</g>
					</g>
					<g id="XMLID_950_">
						<g id="XMLID_949_">
							<path style="fill:#EEE4D9;" d="M139.458,174.209h-10.817c-0.169,0-0.305-0.136-0.305-0.305s0.136-0.305,0.305-0.305h10.817
								c0.169,0,0.305,0.137,0.305,0.305S139.626,174.209,139.458,174.209z"/>
						</g>
						<g id="XMLID_948_">
							<path style="fill:#EEE4D9;" d="M139.458,234.674h-10.817c-0.169,0-0.305-0.137-0.305-0.305c0-0.169,0.136-0.305,0.305-0.305
								h10.817c0.169,0,0.305,0.136,0.305,0.305C139.763,234.538,139.626,234.674,139.458,234.674z"/>
						</g>
						<g id="XMLID_947_">
							<path style="fill:#EEE4D9;" d="M128.641,234.674c-0.169,0-0.305-0.137-0.305-0.305v-60.465c0-0.169,0.136-0.305,0.305-0.305
								s0.305,0.137,0.305,0.305v60.465C128.946,234.538,128.809,234.674,128.641,234.674z"/>
						</g>
					</g>
					<g id="XMLID_954_">
						<g id="XMLID_957_">
							<path style="fill:#EEE4D9;" d="M146.104,183.208h-7.597c-0.169,0-0.305-0.136-0.305-0.305s0.136-0.305,0.305-0.305h7.597
								c0.169,0,0.305,0.137,0.305,0.305S146.273,183.208,146.104,183.208z"/>
						</g>
						<g id="XMLID_956_">
							<path style="fill:#EEE4D9;" d="M146.104,225.675h-7.597c-0.169,0-0.305-0.137-0.305-0.305s0.136-0.305,0.305-0.305h7.597
								c0.169,0,0.305,0.136,0.305,0.305S146.273,225.675,146.104,225.675z"/>
						</g>
						<g id="XMLID_955_">
							<path style="fill:#EEE4D9;" d="M138.507,225.675c-0.169,0-0.305-0.137-0.305-0.305v-42.467c0-0.169,0.136-0.305,0.305-0.305
								c0.169,0,0.305,0.137,0.305,0.305v42.467C138.813,225.539,138.676,225.675,138.507,225.675z"/>
						</g>
					</g>
					<g id="XMLID_965_">
						<path style="fill:#EEE4D9;" d="M147.174,225.675c-0.169,0-0.305-0.137-0.305-0.305V194.1c0-0.169,0.137-0.305,0.305-0.305
							c0.169,0,0.305,0.136,0.305,0.305v31.27C147.479,225.539,147.343,225.675,147.174,225.675z"/>
					</g>
				</g>
				<g id="XMLID_977_">
					<path id="XMLID_932_" style="fill:#9EBFD8;" d="M149.249,169.561h-24.787c-0.404,0-0.731-0.327-0.731-0.731v-3.408
						c0-0.404,0.327-0.731,0.731-0.731h24.787c0.404,0,0.731,0.327,0.731,0.731v3.408
						C149.98,169.233,149.652,169.561,149.249,169.561z"/>
					<path id="XMLID_952_" style="fill:#CC882A;" d="M159.567,176.569H134.78c-0.404,0-0.731-0.327-0.731-0.731v-3.408
						c0-0.404,0.327-0.731,0.731-0.731h24.787c0.404,0,0.731,0.327,0.731,0.731v3.408
						C160.298,176.242,159.971,176.569,159.567,176.569z"/>
					<path id="XMLID_958_" style="fill:#D6723A;" d="M149.249,185.337h-6.906c-0.404,0-0.731-0.327-0.731-0.731v-3.407
						c0-0.404,0.327-0.731,0.731-0.731h6.906c0.404,0,0.731,0.327,0.731,0.731v3.407C149.98,185.01,149.652,185.337,149.249,185.337
						z"/>
					<path id="XMLID_969_" style="fill:#D6723A;" d="M174.231,176.569h-6.906c-0.404,0-0.731-0.327-0.731-0.731v-3.408
						c0-0.404,0.327-0.731,0.731-0.731h6.906c0.404,0,0.731,0.327,0.731,0.731v3.408
						C174.961,176.242,174.634,176.569,174.231,176.569z"/>
					<path id="XMLID_970_" style="fill:#D6723A;" d="M194.502,206.347h-6.906c-0.404,0-0.731-0.327-0.731-0.731v-3.408
						c0-0.404,0.327-0.731,0.731-0.731h6.906c0.404,0,0.731,0.327,0.731,0.731v3.408
						C195.233,206.02,194.906,206.347,194.502,206.347z"/>
					<path id="XMLID_971_" style="fill:#D6723A;" d="M206.675,206.347h-6.906c-0.404,0-0.731-0.327-0.731-0.731v-3.408
						c0-0.404,0.327-0.731,0.731-0.731h6.906c0.404,0,0.731,0.327,0.731,0.731v3.408
						C207.405,206.02,207.078,206.347,206.675,206.347z"/>
					<path id="XMLID_972_" style="fill:#D6723A;" d="M218.311,206.347h-6.906c-0.404,0-0.731-0.327-0.731-0.731v-3.408
						c0-0.404,0.327-0.731,0.731-0.731h6.906c0.404,0,0.731,0.327,0.731,0.731v3.408
						C219.042,206.02,218.715,206.347,218.311,206.347z"/>
					<path id="XMLID_974_" style="fill:#D6723A;" d="M170.047,236.803h-6.906c-0.404,0-0.731-0.327-0.731-0.731v-3.408
						c0-0.404,0.327-0.731,0.731-0.731h6.906c0.404,0,0.731,0.327,0.731,0.731v3.408
						C170.777,236.476,170.45,236.803,170.047,236.803z"/>
					<path id="XMLID_959_" style="fill:#D6723A;" d="M150.627,227.805h-6.906c-0.404,0-0.731-0.327-0.731-0.731v-3.408
						c0-0.404,0.327-0.731,0.731-0.731h6.906c0.404,0,0.731,0.327,0.731,0.731v3.408
						C151.358,227.477,151.031,227.805,150.627,227.805z"/>
					<path id="XMLID_960_" style="fill:#D6723A;" d="M150.627,217.381h-6.906c-0.404,0-0.731-0.327-0.731-0.731v-3.408
						c0-0.404,0.327-0.731,0.731-0.731h6.906c0.404,0,0.731,0.327,0.731,0.731v3.408
						C151.358,217.054,151.031,217.381,150.627,217.381z"/>
					<path id="XMLID_961_" style="fill:#D6723A;" d="M150.627,206.347h-6.906c-0.404,0-0.731-0.327-0.731-0.731v-3.408
						c0-0.404,0.327-0.731,0.731-0.731h6.906c0.404,0,0.731,0.327,0.731,0.731v3.408
						C151.358,206.02,151.031,206.347,150.627,206.347z"/>
					<path id="XMLID_963_" style="fill:#D6723A;" d="M150.627,196.534h-6.906c-0.404,0-0.731-0.327-0.731-0.731v-3.407
						c0-0.404,0.327-0.731,0.731-0.731h6.906c0.404,0,0.731,0.327,0.731,0.731v3.407
						C151.358,196.207,151.031,196.534,150.627,196.534z"/>
					<path id="XMLID_953_" style="fill:#CC882A;" d="M154.006,236.68H134.78c-0.404,0-0.731-0.327-0.731-0.731v-3.407
						c0-0.404,0.327-0.731,0.731-0.731h19.225c0.404,0,0.731,0.327,0.731,0.731v3.407
						C154.736,236.352,154.409,236.68,154.006,236.68z"/>
					<path id="XMLID_939_" style="fill:#9EBFD8;" d="M137.777,243.581h-11.663c-0.403,0-0.731-0.327-0.731-0.731v-3.408
						c0-0.404,0.327-0.731,0.731-0.731h11.663c0.403,0,0.731,0.327,0.731,0.731v3.408
						C138.507,243.254,138.18,243.581,137.777,243.581z"/>
					<path id="XMLID_934_" style="fill:#CC882A;" d="M200.129,169.561h-45.045c-0.404,0-0.731-0.327-0.731-0.731v-3.408
						c0-0.404,0.327-0.731,0.731-0.731h45.045c0.404,0,0.731,0.327,0.731,0.731v3.408
						C200.86,169.233,200.533,169.561,200.129,169.561z"/>
					<path id="XMLID_966_" style="fill:#9EBFD8;" d="M200.512,217.381h-45.045c-0.404,0-0.731-0.327-0.731-0.731v-3.408
						c0-0.404,0.327-0.731,0.731-0.731h45.045c0.404,0,0.731,0.327,0.731,0.731v3.408
						C201.242,217.054,200.915,217.381,200.512,217.381z"/>
					<path id="XMLID_967_" style="fill:#9EBFD8;" d="M180.974,206.347h-25.507c-0.404,0-0.731-0.327-0.731-0.731v-3.408
						c0-0.404,0.327-0.731,0.731-0.731h25.507c0.403,0,0.731,0.327,0.731,0.731v3.408
						C181.704,206.02,181.377,206.347,180.974,206.347z"/>
					<path id="XMLID_968_" style="fill:#9EBFD8;" d="M200.512,196.534h-45.045c-0.404,0-0.731-0.327-0.731-0.731v-3.407
						c0-0.404,0.327-0.731,0.731-0.731h45.045c0.404,0,0.731,0.327,0.731,0.731v3.407
						C201.242,196.207,200.915,196.534,200.512,196.534z"/>
					<path id="XMLID_935_" style="fill:#CC882A;" d="M240.419,169.561h-30.31c-0.404,0-0.731-0.327-0.731-0.731v-3.408
						c0-0.404,0.327-0.731,0.731-0.731h30.31c0.404,0,0.731,0.327,0.731,0.731v3.408
						C241.15,169.233,240.823,169.561,240.419,169.561z"/>
				</g>
			</g>
		</g>
		<g id="XMLID_1038_">
			<g id="XMLID_907_">
				<g id="XMLID_918_">
					<path style="fill:#FFFFFF;" d="M323.025,296.891h-107.61c-2.302,0-4.168-1.866-4.168-4.168v-63.558
						c0-2.302,1.866-4.168,4.168-4.168h107.61c2.302,0,4.168,1.866,4.168,4.168v63.558
						C327.193,295.024,325.327,296.891,323.025,296.891z"/>
					<path style="fill:#EEE4D9;" d="M323.025,297.501h-107.61c-2.635,0-4.779-2.144-4.779-4.779v-63.558
						c0-2.635,2.144-4.779,4.779-4.779h107.61c2.635,0,4.779,2.144,4.779,4.779v63.558
						C327.804,295.357,325.66,297.501,323.025,297.501z M215.415,225.606c-1.962,0-3.558,1.596-3.558,3.558v63.558
						c0,1.962,1.596,3.558,3.558,3.558h107.61c1.962,0,3.558-1.596,3.558-3.558v-63.558c0-1.962-1.596-3.558-3.558-3.558H215.415z"
						/>
				</g>
				<g id="XMLID_915_">
					<path style="fill:#444244;" d="M327.193,228.569H211.246c0-1.973,1.6-3.573,3.573-3.573H323.62
						C325.594,224.996,327.193,226.595,327.193,228.569L327.193,228.569z"/>
					<path style="fill:#444244;" d="M327.804,229.179H210.636v-0.611c0-2.307,1.877-4.183,4.183-4.183h108.802
						c2.306,0,4.183,1.877,4.183,4.183V229.179z M211.92,227.958h114.6c-0.282-1.342-1.475-2.352-2.899-2.352H214.819
						C213.395,225.606,212.202,226.617,211.92,227.958z"/>
				</g>
				<g id="XMLID_909_">
					<path id="XMLID_914_" style="fill:#BEC0C2;" d="M322.156,227.745h1.521c0.218,0,0.395-0.177,0.395-0.395v-1.136
						c0-0.218-0.177-0.395-0.395-0.395h-1.521c-0.218,0-0.395,0.177-0.395,0.395v1.136
						C321.761,227.568,321.938,227.745,322.156,227.745z"/>
					<g id="XMLID_910_">
						<g id="XMLID_913_">
							<path style="fill:#FFFFFF;" d="M322.242,227.649c-0.087,0-0.174-0.037-0.234-0.11c-0.108-0.13-0.091-0.322,0.039-0.43
								l1.348-1.123c0.129-0.107,0.321-0.091,0.43,0.039c0.108,0.13,0.091,0.322-0.039,0.43l-1.348,1.123
								C322.381,227.626,322.312,227.649,322.242,227.649z"/>
						</g>
						<g id="XMLID_911_">
							<path style="fill:#FFFFFF;" d="M323.59,227.649c-0.069,0-0.138-0.023-0.196-0.071l-1.348-1.123
								c-0.129-0.108-0.147-0.301-0.039-0.43c0.108-0.13,0.301-0.146,0.43-0.039l1.348,1.123c0.129,0.108,0.147,0.3,0.039,0.43
								C323.764,227.612,323.677,227.649,323.59,227.649z"/>
						</g>
					</g>
				</g>
			</g>
			<g id="XMLID_1017_">
				<g id="XMLID_984_">
					<path id="XMLID_983_" style="fill:#D6723A;" d="M223.059,237.433h-2.231c-0.374,0-0.676-0.303-0.676-0.676v-2.23
						c0-0.374,0.303-0.676,0.676-0.676h2.231c0.374,0,0.676,0.303,0.676,0.676v2.23C223.736,237.13,223.433,237.433,223.059,237.433
						z"/>
					<path id="XMLID_982_" style="fill:#D6723A;" d="M223.059,245.313h-2.231c-0.374,0-0.676-0.303-0.676-0.676v-2.231
						c0-0.374,0.303-0.676,0.676-0.676h2.231c0.374,0,0.676,0.303,0.676,0.676v2.231
						C223.736,245.01,223.433,245.313,223.059,245.313z"/>
					<path id="XMLID_981_" style="fill:#D6723A;" d="M223.059,253.704h-2.231c-0.374,0-0.676-0.303-0.676-0.676v-2.231
						c0-0.374,0.303-0.676,0.676-0.676h2.231c0.374,0,0.676,0.303,0.676,0.676v2.231
						C223.736,253.401,223.433,253.704,223.059,253.704z"/>
					<path id="XMLID_980_" style="fill:#D6723A;" d="M223.059,260.579h-2.231c-0.374,0-0.676-0.303-0.676-0.676v-2.23
						c0-0.374,0.303-0.676,0.676-0.676h2.231c0.374,0,0.676,0.303,0.676,0.676v2.23
						C223.736,260.276,223.433,260.579,223.059,260.579z"/>
					<path id="XMLID_979_" style="fill:#D6723A;" d="M223.059,268.622h-2.231c-0.374,0-0.676-0.303-0.676-0.676v-2.231
						c0-0.374,0.303-0.676,0.676-0.676h2.231c0.374,0,0.676,0.303,0.676,0.676v2.231
						C223.736,268.319,223.433,268.622,223.059,268.622z"/>
				</g>
				<g id="XMLID_986_">
					<g id="XMLID_989_">
						<path style="fill:#EEE4D9;" d="M235.193,235.906h-9.373c-0.146,0-0.265-0.118-0.265-0.264c0-0.146,0.119-0.264,0.265-0.264
							h9.373c0.146,0,0.265,0.118,0.265,0.264C235.457,235.788,235.339,235.906,235.193,235.906z"/>
					</g>
					<g id="XMLID_988_">
						<path style="fill:#EEE4D9;" d="M235.193,288.301h-9.373c-0.146,0-0.265-0.118-0.265-0.264c0-0.146,0.119-0.264,0.265-0.264
							h9.373c0.146,0,0.265,0.118,0.265,0.264C235.457,288.182,235.339,288.301,235.193,288.301z"/>
					</g>
					<g id="XMLID_987_">
						<path style="fill:#EEE4D9;" d="M225.82,288.301c-0.146,0-0.265-0.118-0.265-0.264v-52.395c0-0.146,0.119-0.264,0.265-0.264
							s0.265,0.118,0.265,0.264v52.395C226.084,288.182,225.966,288.301,225.82,288.301z"/>
					</g>
				</g>
				<path id="XMLID_990_" style="fill:#9EBFD8;" d="M247.493,237.433h-13.67c-0.592,0-1.073-0.48-1.073-1.073v-1.438
					c0-0.592,0.48-1.073,1.073-1.073h13.67c0.592,0,1.073,0.48,1.073,1.073v1.438C248.566,236.953,248.086,237.433,247.493,237.433z
					"/>
				<path id="XMLID_999_" style="opacity:0.8;fill:#514342;" d="M300.347,237.433h-46.564c-0.592,0-1.073-0.48-1.073-1.073v-1.438
					c0-0.592,0.48-1.073,1.073-1.073h46.564c0.592,0,1.073,0.48,1.073,1.073v1.438C301.42,236.953,300.939,237.433,300.347,237.433z
					"/>
				<path id="XMLID_1009_" style="opacity:0.8;fill:#514342;" d="M300.347,253.192h-46.564c-0.592,0-1.073-0.48-1.073-1.073v-1.438
					c0-0.592,0.48-1.073,1.073-1.073h46.564c0.592,0,1.073,0.48,1.073,1.073v1.438C301.42,252.712,300.939,253.192,300.347,253.192z
					"/>
				<path id="XMLID_1011_" style="opacity:0.8;fill:#514342;" d="M300.347,268.951h-46.564c-0.592,0-1.073-0.48-1.073-1.073v-1.438
					c0-0.592,0.48-1.073,1.073-1.073h46.564c0.592,0,1.073,0.48,1.073,1.073v1.438C301.42,268.471,300.939,268.951,300.347,268.951z
					"/>
				<path id="XMLID_1012_" style="opacity:0.8;fill:#514342;" d="M300.347,284.711h-46.564c-0.592,0-1.073-0.48-1.073-1.073V282.2
					c0-0.592,0.48-1.073,1.073-1.073h46.564c0.592,0,1.073,0.48,1.073,1.073v1.438C301.42,284.23,300.939,284.711,300.347,284.711z"
					/>
				<path id="XMLID_992_" style="fill:#9EBFD8;" d="M247.493,245.313h-13.67c-0.592,0-1.073-0.48-1.073-1.073v-1.438
					c0-0.592,0.48-1.073,1.073-1.073h13.67c0.592,0,1.073,0.48,1.073,1.073v1.438C248.566,244.832,248.086,245.313,247.493,245.313z
					"/>
				<path id="XMLID_993_" style="fill:#9EBFD8;" d="M247.493,253.192h-13.67c-0.592,0-1.073-0.48-1.073-1.073v-1.438
					c0-0.592,0.48-1.073,1.073-1.073h13.67c0.592,0,1.073,0.48,1.073,1.073v1.438C248.566,252.712,248.086,253.192,247.493,253.192z
					"/>
				<path id="XMLID_995_" style="fill:#9EBFD8;" d="M247.493,261.072h-13.67c-0.592,0-1.073-0.48-1.073-1.073v-1.438
					c0-0.592,0.48-1.073,1.073-1.073h13.67c0.592,0,1.073,0.48,1.073,1.073v1.438C248.566,260.592,248.086,261.072,247.493,261.072z
					"/>
				<path id="XMLID_996_" style="fill:#9EBFD8;" d="M247.493,268.951h-13.67c-0.592,0-1.073-0.48-1.073-1.073v-1.438
					c0-0.592,0.48-1.073,1.073-1.073h13.67c0.592,0,1.073,0.48,1.073,1.073v1.438C248.566,268.471,248.086,268.951,247.493,268.951z
					"/>
				<path id="XMLID_997_" style="fill:#9EBFD8;" d="M247.493,276.831h-13.67c-0.592,0-1.073-0.48-1.073-1.073v-1.438
					c0-0.592,0.48-1.073,1.073-1.073h13.67c0.592,0,1.073,0.48,1.073,1.073v1.438C248.566,276.351,248.086,276.831,247.493,276.831z
					"/>
				<path id="XMLID_998_" style="fill:#9EBFD8;" d="M247.493,284.711h-13.67c-0.592,0-1.073-0.48-1.073-1.073V282.2
					c0-0.592,0.48-1.073,1.073-1.073h13.67c0.592,0,1.073,0.48,1.073,1.073v1.438C248.566,284.23,248.086,284.711,247.493,284.711z"
					/>
				<path id="XMLID_1014_" style="fill:#9EBFD8;" d="M317.214,245.313h-13.67c-0.592,0-1.073-0.48-1.073-1.073v-1.438
					c0-0.592,0.48-1.073,1.073-1.073h13.67c0.592,0,1.073,0.48,1.073,1.073v1.438C318.287,244.832,317.807,245.313,317.214,245.313z
					"/>
				<path id="XMLID_1015_" style="fill:#9EBFD8;" d="M317.214,261.072h-13.67c-0.592,0-1.073-0.48-1.073-1.073v-1.438
					c0-0.592,0.48-1.073,1.073-1.073h13.67c0.592,0,1.073,0.48,1.073,1.073v1.438C318.287,260.592,317.807,261.072,317.214,261.072z
					"/>
				<path id="XMLID_1016_" style="fill:#9EBFD8;" d="M317.214,276.831h-13.67c-0.592,0-1.073-0.48-1.073-1.073v-1.438
					c0-0.592,0.48-1.073,1.073-1.073h13.67c0.592,0,1.073,0.48,1.073,1.073v1.438C318.287,276.351,317.807,276.831,317.214,276.831z
					"/>
			</g>
		</g>
		<g id="XMLID_1037_">
			<g id="XMLID_919_">
				<g id="XMLID_926_">
					<path style="fill:#FFFFFF;" d="M252.802,358.47H127.845c-2.673,0-4.84-2.167-4.84-4.84v-73.803c0-2.673,2.167-4.84,4.84-4.84
						h124.956c2.673,0,4.84,2.167,4.84,4.84v73.803C257.642,356.303,255.475,358.47,252.802,358.47z"/>
					<path style="fill:#EEE4D9;" d="M252.802,359.081H127.846c-3.006,0-5.451-2.445-5.451-5.451v-73.803
						c0-3.005,2.445-5.451,5.451-5.451h124.956c3.005,0,5.451,2.445,5.451,5.451v73.803
						C258.252,356.635,255.807,359.081,252.802,359.081z M127.846,275.597c-2.333,0-4.23,1.897-4.23,4.23v73.803
						c0,2.333,1.897,4.23,4.23,4.23h124.956c2.332,0,4.229-1.897,4.229-4.23v-73.803c0-2.332-1.897-4.23-4.229-4.23H127.846z"/>
				</g>
				<g id="XMLID_925_">
					<path style="fill:#444244;" d="M257.642,279.135H123.005c0-2.291,1.857-4.149,4.149-4.149h126.339
						C255.784,274.987,257.642,276.844,257.642,279.135L257.642,279.135z"/>
					<path style="fill:#444244;" d="M258.252,279.746H122.395v-0.61c0-2.624,2.135-4.759,4.759-4.759h126.339
						c2.624,0,4.759,2.135,4.759,4.759V279.746z M123.668,278.525h133.311c-0.29-1.661-1.743-2.928-3.486-2.928H127.154
						C125.411,275.597,123.958,276.864,123.668,278.525z"/>
				</g>
				<g id="XMLID_920_">
					<path id="XMLID_924_" style="fill:#BEC0C2;" d="M251.792,278.179h1.766c0.253,0,0.459-0.206,0.459-0.459v-1.319
						c0-0.254-0.206-0.459-0.459-0.459h-1.766c-0.253,0-0.459,0.205-0.459,0.459v1.319
						C251.333,277.974,251.539,278.179,251.792,278.179z"/>
					<g id="XMLID_921_">
						<g id="XMLID_923_">
							<path style="fill:#FFFFFF;" d="M251.893,278.018c-0.087,0-0.174-0.037-0.234-0.11c-0.108-0.13-0.091-0.322,0.039-0.43
								l1.565-1.305c0.129-0.108,0.321-0.091,0.43,0.039c0.108,0.13,0.091,0.322-0.039,0.43l-1.565,1.305
								C252.031,277.995,251.962,278.018,251.893,278.018z"/>
						</g>
						<g id="XMLID_922_">
							<path style="fill:#FFFFFF;" d="M253.458,278.018c-0.069,0-0.138-0.023-0.196-0.071l-1.565-1.305
								c-0.129-0.108-0.147-0.3-0.039-0.43c0.109-0.13,0.301-0.146,0.43-0.039l1.565,1.305c0.13,0.108,0.147,0.301,0.039,0.43
								C253.632,277.981,253.545,278.018,253.458,278.018z"/>
						</g>
					</g>
				</g>
			</g>
			<g id="XMLID_1036_">
				<path id="XMLID_1022_" style="fill:#9EBFD8;" d="M175.654,297.702h-33.612c-0.468,0-0.848-0.379-0.848-0.847v-3.174
					c0-0.468,0.38-0.847,0.848-0.847h33.612c0.468,0,0.847,0.379,0.847,0.847v3.174
					C176.501,297.323,176.122,297.702,175.654,297.702z"/>
				<path id="XMLID_1023_" style="fill:#9EBFD8;" d="M202.192,340.595h-59.874c-0.621,0-1.124-0.503-1.124-1.124v-2.621
					c0-0.621,0.503-1.124,1.124-1.124h59.874c0.621,0,1.124,0.503,1.124,1.124v2.621
					C203.317,340.092,202.813,340.595,202.192,340.595z"/>
				<g id="XMLID_1018_">
					<path id="XMLID_1025_" style="fill:#D6723A;" d="M136.708,297.758h-3.066c-0.513,0-0.929-0.416-0.929-0.929v-3.066
						c0-0.513,0.416-0.929,0.929-0.929h3.066c0.513,0,0.929,0.416,0.929,0.929v3.066
						C137.637,297.342,137.221,297.758,136.708,297.758z"/>
					<path id="XMLID_1024_" style="fill:#D6723A;" d="M136.708,308.587h-3.066c-0.513,0-0.929-0.416-0.929-0.93v-3.066
						c0-0.513,0.416-0.929,0.929-0.929h3.066c0.513,0,0.929,0.416,0.929,0.929v3.066
						C137.637,308.171,137.221,308.587,136.708,308.587z"/>
					<path id="XMLID_1021_" style="fill:#D6723A;" d="M136.708,320.12h-3.066c-0.513,0-0.929-0.416-0.929-0.929v-3.066
						c0-0.513,0.416-0.929,0.929-0.929h3.066c0.513,0,0.929,0.416,0.929,0.929v3.066C137.637,319.704,137.221,320.12,136.708,320.12
						z"/>
					<path id="XMLID_1020_" style="fill:#D6723A;" d="M136.708,329.569h-3.066c-0.513,0-0.929-0.416-0.929-0.929v-3.066
						c0-0.513,0.416-0.929,0.929-0.929h3.066c0.513,0,0.929,0.416,0.929,0.929v3.066
						C137.637,329.153,137.221,329.569,136.708,329.569z"/>
					<path id="XMLID_1019_" style="fill:#D6723A;" d="M136.708,340.623h-3.066c-0.513,0-0.929-0.416-0.929-0.929v-3.066
						c0-0.513,0.416-0.929,0.929-0.929h3.066c0.513,0,0.929,0.416,0.929,0.929v3.066
						C137.637,340.207,137.221,340.623,136.708,340.623z"/>
				</g>
				<path id="XMLID_1026_" style="opacity:0.8;fill:#514342;" d="M246.453,297.785H182.55c-0.818,0-1.481-0.663-1.481-1.481v-2.016
					c0-0.818,0.663-1.481,1.481-1.481h63.902c0.818,0,1.481,0.663,1.481,1.481v2.016
					C247.934,297.122,247.271,297.785,246.453,297.785z"/>
				<path id="XMLID_1028_" style="fill:#9EBFD8;" d="M175.654,308.532h-33.612c-0.468,0-0.848-0.379-0.848-0.847v-3.174
					c0-0.468,0.38-0.848,0.848-0.848h33.612c0.468,0,0.847,0.379,0.847,0.848v3.174
					C176.501,308.152,176.122,308.532,175.654,308.532z"/>
				<path id="XMLID_1027_" style="opacity:0.8;fill:#514342;" d="M239.79,308.615h-57.317c-0.776,0-1.405-0.629-1.405-1.405v-2.169
					c0-0.776,0.629-1.405,1.405-1.405h57.317c0.776,0,1.405,0.629,1.405,1.405v2.169
					C241.195,307.986,240.566,308.615,239.79,308.615z"/>
				<path id="XMLID_1030_" style="fill:#9EBFD8;" d="M175.654,320.064h-33.612c-0.468,0-0.848-0.379-0.848-0.848v-3.174
					c0-0.468,0.38-0.848,0.848-0.848h33.612c0.468,0,0.847,0.379,0.847,0.848v3.174
					C176.501,319.685,176.122,320.064,175.654,320.064z"/>
				<path id="XMLID_1029_" style="opacity:0.8;fill:#514342;" d="M228.677,320.147h-46.342c-0.699,0-1.266-0.567-1.266-1.267v-2.446
					c0-0.7,0.567-1.267,1.266-1.267h46.342c0.699,0,1.266,0.567,1.266,1.267v2.446C229.944,319.58,229.377,320.147,228.677,320.147z
					"/>
				<path id="XMLID_1033_" style="opacity:0.8;fill:#514342;" d="M228.677,332.059h-46.342c-0.699,0-1.266-0.567-1.266-1.267v-2.446
					c0-0.7,0.567-1.267,1.266-1.267h46.342c0.699,0,1.266,0.567,1.266,1.267v2.446C229.944,331.492,229.377,332.059,228.677,332.059
					z"/>
				<path id="XMLID_1032_" style="fill:#9EBFD8;" d="M175.654,331.597h-33.612c-0.468,0-0.848-0.38-0.848-0.848v-3.174
					c0-0.468,0.38-0.847,0.848-0.847h33.612c0.468,0,0.847,0.379,0.847,0.847v3.174
					C176.501,331.217,176.122,331.597,175.654,331.597z"/>
				<path id="XMLID_1031_" style="opacity:0.8;fill:#514342;" d="M246.745,340.65h-40.059c-0.652,0-1.18-0.528-1.18-1.18v-2.619
					c0-0.652,0.528-1.18,1.18-1.18h40.059c0.652,0,1.18,0.528,1.18,1.18v2.619C247.925,340.122,247.397,340.65,246.745,340.65z"/>
			</g>
		</g>
		<g id="XMLID_1046_" style="opacity:0.8;">
			<path id="XMLID_1041_" style="fill:#FFFFFF;" d="M332.608,371.056H114.91c-1.07,0-1.938-0.868-1.938-1.938
				c0-1.07,0.868-1.938,1.938-1.938h217.697c1.07,0,1.938,0.868,1.938,1.938C334.546,370.188,333.678,371.056,332.608,371.056z"/>
			<path id="XMLID_1045_" style="fill:#FFFFFF;" d="M332.608,145.091H114.91c-1.07,0-1.938-0.868-1.938-1.938
				c0-1.07,0.868-1.938,1.938-1.938h217.697c1.07,0,1.938,0.868,1.938,1.938C334.546,144.223,333.678,145.091,332.608,145.091z"/>
			<path id="XMLID_1042_" style="fill:#FFFFFF;" d="M332.608,377.375H114.91c-1.07,0-1.938-0.868-1.938-1.938
				c0-1.07,0.868-1.938,1.938-1.938h217.697c1.07,0,1.938,0.868,1.938,1.938C334.546,376.507,333.678,377.375,332.608,377.375z"/>
			<path id="XMLID_1043_" style="fill:#FFFFFF;" d="M332.608,383.694H114.91c-1.07,0-1.938-0.868-1.938-1.938
				c0-1.07,0.868-1.938,1.938-1.938h217.697c1.07,0,1.938,0.868,1.938,1.938C334.546,382.827,333.678,383.694,332.608,383.694z"/>
		</g>
	</g>
	<g id="XMLID_1050_">
		<path id="XMLID_1160_" style="fill:#58857A;" d="M103.421,347.738c2.08-0.458,4.248-1.41,6.327-5.147
			c2.08-3.737-1.329-6.046-3.543-3.331c-1.481,1.815-1.269,4.336-1.639,5.482C104.197,345.887,103.421,347.738,103.421,347.738z"/>
		<path id="XMLID_1055_" style="fill:#76A699;" d="M101.817,352.79c3.713-0.94,9.676-1.815,13.836,1.428
			c4.16,3.243,5.147,7.755,1.974,9.588c-3.172,1.833-5.852-4.348-8.554-6.768C106.371,354.617,101.817,352.79,101.817,352.79z"/>
		<path id="XMLID_1158_" style="fill:#58857A;" d="M70.156,345.382c1.174-0.923,5.922-0.047,9.447,5.264
			c3.525,5.311,4.841,10.293,5.687,13.16c0.846,2.867,3.854,6.063,4.653,6.439c0,0-6.486-0.611-14.288-7.332
			C67.853,356.192,66.631,348.155,70.156,345.382z"/>
		<path id="XMLID_1157_" style="fill:#58857A;" d="M97.288,346.768c0.423-3.737,4.265-7.403,5.993-13.219
			c1.727-5.816,1.904-14.241-3.384-13.677c-5.288,0.564-5.006,11.457-4.829,14.206C95.243,336.828,97.288,346.768,97.288,346.768z"
			/>
		<path id="XMLID_1054_" style="fill:#58857A;" d="M91.542,319.625c-0.564-6.063,0.634-11.985,4.935-14.594
			c4.3-2.609,10.293-2.609,8.954,1.833c-1.34,4.442-4.089,5.711-7.05,7.191C95.42,315.536,91.542,319.625,91.542,319.625z"/>
		<path id="XMLID_1155_" style="fill:#76A699;" d="M67.148,291.988c1.774-6.21,10.928-0.071,14.382,4.23
			c3.455,4.301,4.865,11.139,5.429,14.664c0,0-2.608-3.243-7.896-4.794C73.775,304.538,65.456,297.911,67.148,291.988z"/>
		<path id="XMLID_1154_" style="fill:#DE684E;" d="M86.624,406.659h19.914c0.987,0,1.953-0.402,2.578-1.166
			c2.149-2.647,4.442-30.956,4.442-30.956H79.604c0,0,2.293,28.309,4.432,30.943C84.672,406.257,85.638,406.659,86.624,406.659z"/>
		<ellipse id="XMLID_1053_" style="fill:#AF7A4E;" cx="96.54" cy="374.686" rx="16.963" ry="1.828"/>
		<g id="XMLID_1052_">
			<path id="XMLID_1152_" style="fill:#58857A;" d="M93.234,375.106c-0.12,0-0.23-0.078-0.266-0.199
				c-0.557-1.868-0.817-9.062-1.12-17.392c-0.232-6.415-0.496-13.686-0.936-18.902l-0.085-1.01
				c-0.952-11.323-2.255-26.83-7.687-34.027c-0.092-0.122-0.068-0.297,0.055-0.389c0.122-0.091,0.297-0.067,0.389,0.055
				c5.529,7.324,6.839,22.924,7.796,34.314l0.085,1.01c0.441,5.228,0.694,12.193,0.937,18.928
				c0.288,7.947,0.561,15.452,1.097,17.254c0.044,0.147-0.04,0.302-0.187,0.345C93.287,375.102,93.26,375.106,93.234,375.106z"/>
		</g>
		<g id="XMLID_1149_">
			<path id="XMLID_1150_" style="fill:#76A699;" d="M95.913,375.141c-0.023,0-0.047-0.003-0.07-0.008
				c-0.149-0.039-0.238-0.19-0.199-0.339c0.485-1.871,1.469-20.842,1.367-26.363c-0.105-5.666,1.431-17.999,1.446-18.124
				c0.02-0.151,0.136-0.255,0.311-0.241c0.152,0.019,0.26,0.158,0.241,0.311c-0.016,0.123-1.548,12.419-1.443,18.044
				c0.106,5.727-0.877,24.558-1.383,26.512C96.149,375.057,96.037,375.141,95.913,375.141z"/>
		</g>
		<g id="XMLID_1147_">
			<path id="XMLID_1148_" style="fill:#9FC7BD;" d="M113.962,358.044c-0.074,0-0.148-0.029-0.203-0.088
				c-4.37-4.677-13.489-6.176-16.377-3.664c-0.1,0.088-0.252,0.09-0.354,0.008c-0.106-0.083-0.136-0.229-0.074-0.347
				c0.064-0.121,1.596-2.989,4.352-4.91c2.59-1.804,4.446-3.678,5.694-7.438c0.047-0.145,0.204-0.228,0.35-0.176
				c0.146,0.048,0.224,0.205,0.176,0.351c-1.295,3.906-3.219,5.85-5.903,7.719c-1.661,1.158-2.88,2.713-3.559,3.714
				c3.807-1.748,11.903-0.126,16.1,4.365c0.105,0.112,0.099,0.287-0.013,0.392C114.098,358.019,114.03,358.044,113.962,358.044z"/>
		</g>
		<g id="XMLID_1145_">
			<path id="XMLID_1146_" style="fill:#76A699;" d="M90.085,327.423c-0.138,0-0.257-0.102-0.276-0.243
				c-0.332-2.616,2.042-13.162,8.409-18.854c0.116-0.101,0.291-0.092,0.392,0.022c0.102,0.115,0.092,0.29-0.022,0.392
				c-6.122,5.473-8.542,15.908-8.228,18.371c0.019,0.152-0.089,0.291-0.241,0.311C90.108,327.422,90.096,327.423,90.085,327.423z"/>
		</g>
		<g id="XMLID_1051_">
			<path id="XMLID_1144_" style="fill:#76A699;" d="M90.484,330.831c-0.145,0-0.267-0.112-0.277-0.258
				c-0.523-7.591-3.227-12.177-4.043-13.402c-1.445-2.166-4.944-4.118-9.538-3.614c-0.163,0.026-0.289-0.093-0.306-0.245
				c-0.017-0.153,0.093-0.29,0.245-0.307c4.816-0.538,8.524,1.552,10.062,3.859c2.23,3.345,3.776,8.457,4.134,13.671
				c0.011,0.153-0.105,0.286-0.257,0.296C90.497,330.831,90.49,330.831,90.484,330.831z"/>
		</g>
		<path id="XMLID_1142_" style="fill:#58857A;" d="M85.878,316.358c-0.493-1.786-5.066-5.675-10.105-5.758
			c-5.711-0.094-6.463,2.679-3.619,4.395c2.843,1.715,5.617,0.352,7.755,0.282C82.048,315.207,85.878,316.358,85.878,316.358z"/>
		<g id="XMLID_1140_">
			<path id="XMLID_1141_" style="fill:#9FC7BD;" d="M96.961,360.2c-0.016,0-0.032-0.001-0.047-0.003
				c-0.62-0.102-8.762-4.715-12.029-14.883c-0.048-0.146,0.033-0.302,0.179-0.349c0.144-0.048,0.302,0.032,0.349,0.179
				c3.36,10.46,11.538,14.484,11.616,14.51c0.151,0.025,0.241,0.165,0.216,0.316C97.223,360.106,97.096,360.2,96.961,360.2z"/>
		</g>
		<path id="XMLID_1139_" style="fill:#58857A;" d="M83.434,337.086c2.611-0.838,4.829,2.15,5.534,5.111
			c0.705,2.961,1.081,9.118,1.821,11.163c0.74,2.045,2.338,3.925,2.338,3.925s-4.512-2.08-8.495-6.38
			C80.649,346.604,79.592,338.32,83.434,337.086z"/>
		<path id="XMLID_1138_" style="fill:#76A699;" d="M67.994,322.163c2.743-2.893,7.191,0,9.541,3.478
			c2.35,3.478,4.089,7.52,5.499,9.494c1.41,1.974,4.277,4.183,4.277,4.183s-3.854,0.611-11.092-2.679
			C68.981,333.349,64.563,325.782,67.994,322.163z"/>
		<g id="XMLID_1136_">
			<path id="XMLID_1137_" style="fill:#9FC7BD;" d="M92.764,371.651c-0.022,0-0.046-0.003-0.069-0.008
				c-6.159-1.576-15.681-10.569-18.192-17.184c-0.055-0.144,0.017-0.304,0.16-0.358c0.145-0.056,0.304,0.017,0.358,0.16
				c2.415,6.36,11.903,15.333,17.812,16.844c0.149,0.038,0.238,0.189,0.2,0.338C93.001,371.568,92.888,371.651,92.764,371.651z"/>
		</g>
		<g id="XMLID_1134_">
			<path id="XMLID_1135_" style="fill:#9FC7BD;" d="M91.354,340.818c-0.024,0-0.048-0.003-0.072-0.009l-0.343-0.092
				c-3.8-1.013-11.705-3.12-19.604-14.922c-0.085-0.128-0.051-0.3,0.076-0.385c0.127-0.085,0.299-0.051,0.386,0.076
				c7.782,11.628,15.551,13.699,19.284,14.694l0.345,0.092c0.148,0.04,0.236,0.193,0.196,0.341
				C91.589,340.737,91.477,340.818,91.354,340.818z"/>
		</g>
		<g id="XMLID_1132_">
			<path id="XMLID_1133_" style="fill:#9E653B;" d="M100.255,376.028c-0.141,0-0.262-0.106-0.277-0.249
				c-0.004,0-0.105-0.241-0.742-0.493c-1.44-0.57-2.371,0.004-2.409,0.028c-0.076,0.048-0.172,0.057-0.255,0.024
				c-1.384-0.563-2.122,0.258-2.152,0.293c-0.051,0.058-0.123,0.093-0.199,0.096c-0.072-0.001-0.151-0.025-0.206-0.079
				c-0.905-0.889-2.761-0.794-3.86-0.151c-0.132,0.076-0.301,0.032-0.38-0.1c-0.077-0.133-0.032-0.302,0.1-0.38
				c1.224-0.715,3.188-0.834,4.33,0.061c0.363-0.292,1.197-0.761,2.452-0.302c0.352-0.175,1.378-0.563,2.785-0.006
				c0.988,0.391,1.082,0.863,1.091,0.954c0.015,0.152-0.097,0.288-0.25,0.303C100.272,376.028,100.263,376.028,100.255,376.028z"/>
		</g>
		<g id="XMLID_1130_">
			<path id="XMLID_1131_" style="fill:#FEAE65;" d="M99.705,377.438c-7.198,0-15.603-0.897-18.769-1.972
				c-0.145-0.049-0.223-0.207-0.174-0.352c0.05-0.146,0.211-0.226,0.352-0.174c4.076,1.382,16.964,2.467,24.559,1.679
				c0.152-0.03,0.289,0.096,0.304,0.248c0.016,0.152-0.095,0.288-0.248,0.304C103.951,377.356,101.883,377.438,99.705,377.438z"/>
		</g>
	</g>
	<g id="XMLID_1175_">
		<g id="XMLID_1252_">
			<path style="fill:#D2E8EF;" d="M412.065,252.023h-72.607c-1.121,0-2.029-0.908-2.029-2.029v-59.945
				c0-1.12,0.908-2.029,2.029-2.029h72.607c1.12,0,2.029,0.908,2.029,2.029v59.945C414.094,251.115,413.186,252.023,412.065,252.023
				z"/>
			<path style="fill:#9EBFD8;" d="M412.065,252.939h-72.607c-1.623,0-2.944-1.321-2.944-2.945v-59.945
				c0-1.624,1.321-2.945,2.944-2.945h72.607c1.623,0,2.944,1.321,2.944,2.945v59.945
				C415.01,251.617,413.689,252.939,412.065,252.939z M339.458,188.936c-0.613,0-1.113,0.499-1.113,1.113v59.945
				c0,0.614,0.5,1.113,1.113,1.113h72.607c0.613,0,1.113-0.499,1.113-1.113v-59.945c0-0.614-0.499-1.113-1.113-1.113H339.458z"/>
		</g>
		<g id="XMLID_1181_">
			<circle id="XMLID_1251_" style="fill:#9EBFD8;" cx="346.655" cy="198.871" r="2.766"/>
			<path id="XMLID_1250_" style="opacity:0.5;fill:#FEFFFF;" d="M387.156,201.637h-31.482c-1.528,0-2.766-1.238-2.766-2.766
				c0-1.528,1.238-2.766,2.766-2.766h31.482c1.528,0,2.766,1.238,2.766,2.766C389.922,200.398,388.684,201.637,387.156,201.637z"/>
			<path id="XMLID_1248_" style="opacity:0.5;fill:#FEFFFF;" d="M401.297,201.637h-6.54c-1.528,0-2.766-1.238-2.766-2.766
				c0-1.528,1.238-2.766,2.766-2.766h6.54c1.528,0,2.766,1.238,2.766,2.766C404.063,200.398,402.824,201.637,401.297,201.637z"/>
			<path id="XMLID_1247_" style="fill:#9EBFD8;" d="M401.297,210.399c1.528,0,2.766-1.238,2.766-2.766s-1.238-2.766-2.766-2.766
				c-1.528,0-2.766,1.238-2.766,2.766S399.769,210.399,401.297,210.399z"/>
			<path id="XMLID_1246_" style="opacity:0.5;fill:#FEFFFF;" d="M360.795,210.399h31.482c1.528,0,2.766-1.238,2.766-2.766
				s-1.238-2.766-2.766-2.766h-31.482c-1.528,0-2.766,1.238-2.766,2.766S359.267,210.399,360.795,210.399z"/>
			<path id="XMLID_1245_" style="opacity:0.5;fill:#FEFFFF;" d="M346.655,210.399h6.54c1.528,0,2.766-1.238,2.766-2.766
				s-1.238-2.766-2.766-2.766h-6.54c-1.528,0-2.766,1.238-2.766,2.766S345.127,210.399,346.655,210.399z"/>
			<circle id="XMLID_1244_" style="fill:#9EBFD8;" cx="346.655" cy="215.641" r="2.766"/>
			<path id="XMLID_1241_" style="opacity:0.5;fill:#FEFFFF;" d="M387.156,218.406h-31.482c-1.528,0-2.766-1.238-2.766-2.766
				c0-1.528,1.238-2.766,2.766-2.766h31.482c1.528,0,2.766,1.238,2.766,2.766C389.922,217.168,388.684,218.406,387.156,218.406z"/>
			<path id="XMLID_1239_" style="opacity:0.5;fill:#FEFFFF;" d="M401.297,218.406h-6.54c-1.528,0-2.766-1.238-2.766-2.766
				c0-1.528,1.238-2.766,2.766-2.766h6.54c1.528,0,2.766,1.238,2.766,2.766C404.063,217.168,402.824,218.406,401.297,218.406z"/>
			<circle id="XMLID_1238_" style="fill:#9EBFD8;" cx="401.297" cy="224.403" r="2.766"/>
			<path id="XMLID_1237_" style="opacity:0.5;fill:#FEFFFF;" d="M360.795,227.169h31.482c1.528,0,2.766-1.238,2.766-2.766
				c0-1.528-1.238-2.766-2.766-2.766h-31.482c-1.528,0-2.766,1.238-2.766,2.766C358.029,225.93,359.267,227.169,360.795,227.169z"/>
			<path id="XMLID_1236_" style="opacity:0.5;fill:#FEFFFF;" d="M346.655,227.169h6.54c1.528,0,2.766-1.238,2.766-2.766
				c0-1.528-1.238-2.766-2.766-2.766h-6.54c-1.528,0-2.766,1.238-2.766,2.766C343.889,225.93,345.127,227.169,346.655,227.169z"/>
			<path id="XMLID_1235_" style="fill:#9EBFD8;" d="M346.655,235.176c-1.528,0-2.766-1.238-2.766-2.766
				c0-1.528,1.238-2.766,2.766-2.766s2.766,1.238,2.766,2.766C349.421,233.938,348.182,235.176,346.655,235.176z"/>
			<path id="XMLID_1234_" style="opacity:0.5;fill:#FEFFFF;" d="M387.156,235.176h-31.482c-1.528,0-2.766-1.238-2.766-2.766
				c0-1.528,1.238-2.766,2.766-2.766h31.482c1.528,0,2.766,1.238,2.766,2.766C389.922,233.938,388.684,235.176,387.156,235.176z"/>
			<path id="XMLID_1233_" style="opacity:0.5;fill:#FEFFFF;" d="M401.297,235.176h-6.54c-1.528,0-2.766-1.238-2.766-2.766
				c0-1.528,1.238-2.766,2.766-2.766h6.54c1.528,0,2.766,1.238,2.766,2.766C404.063,233.938,402.824,235.176,401.297,235.176z"/>
			<circle id="XMLID_1232_" style="fill:#9EBFD8;" cx="401.297" cy="241.173" r="2.766"/>
			<path id="XMLID_1183_" style="opacity:0.5;fill:#FEFFFF;" d="M360.795,243.939h31.482c1.528,0,2.766-1.238,2.766-2.766
				c0-1.528-1.238-2.766-2.766-2.766h-31.482c-1.528,0-2.766,1.238-2.766,2.766C358.029,242.7,359.267,243.939,360.795,243.939z"/>
			<path id="XMLID_1182_" style="opacity:0.5;fill:#FEFFFF;" d="M346.655,243.939h6.54c1.528,0,2.766-1.238,2.766-2.766
				c0-1.528-1.238-2.766-2.766-2.766h-6.54c-1.528,0-2.766,1.238-2.766,2.766C343.889,242.7,345.127,243.939,346.655,243.939z"/>
		</g>
	</g>
	<g id="XMLID_1065_">
		<g id="XMLID_1189_">
			<path id="XMLID_1188_" style="fill:#FDA98B;" d="M355.717,195.385c2.115,1.499,5.939,7.193-0.556,11.288
				c-1.518,0.957-3.545,0.441-5.328,0.243c-4.973-0.552-9.911-1.421-14.775-2.598c-2.212-0.536-5.924-4.551-1.878-7.109
				c5.558-3.514,6.365-19.481,6.365-19.481l17.464-3.569C353.749,180.601,351.281,192.24,355.717,195.385z"/>
			<path id="XMLID_1187_" style="fill:#FDA98B;" d="M334.117,172.424c0.506-2.924,0.919-6.06,1.425-8.983
				c0.23-1.33,0.714-4.028,0.684-6.235c-0.014-1.078-1.571-1.209-1.777-0.15c-1.087,5.583-4.351,11.371-4.951,12.529
				C328.779,170.97,334.117,172.424,334.117,172.424z"/>
			<path id="XMLID_1186_" style="fill:#FDA98B;" d="M333.696,158.238c-0.931,13.187-3.191,28.898,5.052,27.745
				c6.473-0.905,16.448-3.65,21.948-15.87c5.346-11.875,1.13-21.232-6.862-23.554C345.841,144.237,334.64,144.87,333.696,158.238z"
				/>
			<path id="XMLID_1185_" style="fill:#EE795C;" d="M338.475,186.015c7.24-0.742,11.95-4.01,12.56-4.307
				c-2.903,3.533-11.011,6.949-13.724,8.857C337.887,188.75,338.116,187.708,338.475,186.015z"/>
			<path id="XMLID_1212_" style="fill:#382823;" d="M338.409,164.355c0.82,0,1.462-3.119-0.528-3.119
				C336.819,161.236,337.066,164.355,338.409,164.355z"/>
			<path id="XMLID_1199_" style="fill:#30323E;" d="M335.014,158.856c0.021,0.019,6.559,0.982,6.559,0.982
				c1.525-0.517-3.69-2.949-6.409-1.945C334.778,158.036,334.728,158.59,335.014,158.856z"/>
			<path id="XMLID_1194_" style="fill:#FFF5ED;" d="M332.696,174.372c1.078,0.199,2.511,0.465,4.401,0.786
				c1.13,0.192-1.767,2.153-4.345,1.799C332.684,175.947,332.691,175.295,332.696,174.372z"/>
		</g>
		<g id="XMLID_1213_">
			<path id="XMLID_1228_" style="fill:#F99889;" d="M310.09,434.412c-4.519,4.811-9.133,0.51-9.133,0.51l0.983-17.901l13.41,1.198
				C315.35,418.219,310.168,431.36,310.09,434.412z"/>
			<g id="XMLID_1221_">
				<g id="XMLID_1227_">
					<path style="fill:#514342;" d="M311.379,442.753c0.008,0.674-0.525,1.229-1.199,1.248c-5.351,0.153-26.63,0.761-26.669,0.76
						c-0.787-0.021-1.417-0.65-1.448-1.437c-0.068-1.698,1.177-3.492,2.731-4.41c3.456-2.04,10.499-1.424,14.395-10.426
						c0.252-0.582,0.991-0.778,1.484-0.379c1.403,1.134,2.487,2.694,3.966,3.756c2.45,1.76,4.509-0.219,6.17,2.259
						C311.232,434.757,311.348,440.263,311.379,442.753z"/>
					<path style="fill:#463C3A;" d="M283.506,445.066c-0.944-0.025-1.71-0.785-1.749-1.729c-0.068-1.716,1.116-3.643,2.881-4.685
						c0.936-0.553,2.132-0.919,3.398-1.306c3.587-1.098,8.052-2.463,10.872-8.978c0.16-0.371,0.477-0.639,0.869-0.736
						c0.386-0.095,0.781-0.008,1.087,0.24c0.654,0.528,1.243,1.151,1.814,1.753c0.666,0.703,1.356,1.431,2.138,1.993
						c1.038,0.746,1.999,0.771,2.929,0.795c1.142,0.03,2.322,0.06,3.315,1.543c0.347,0.517,0.557,3.476,0.623,8.794
						c0.01,0.835-0.661,1.533-1.496,1.556C309.924,444.314,283.596,445.066,283.506,445.066z M300.082,428.205
						c-0.052,0-0.106,0.007-0.158,0.019c-0.205,0.051-0.371,0.191-0.455,0.385c-2.932,6.774-7.546,8.186-11.254,9.32
						c-1.284,0.393-2.393,0.732-3.267,1.248c-1.555,0.918-2.64,2.657-2.581,4.135c0.025,0.625,0.531,1.127,1.151,1.143
						c0.18-0.004,21.556-0.615,26.653-0.761c0.504-0.014,0.908-0.435,0.902-0.939c-0.072-5.771-0.325-8.165-0.519-8.462
						c-0.818-1.22-1.703-1.244-2.824-1.272c-0.975-0.026-2.079-0.054-3.27-0.909c-0.829-0.596-1.539-1.345-2.225-2.069
						c-0.556-0.587-1.132-1.195-1.755-1.698C300.367,428.254,300.227,428.205,300.082,428.205z"/>
				</g>
				<g id="XMLID_1226_">
					<path style="fill:#FFFFFF;" d="M283.394,444.128c-0.164,0-0.299-0.13-0.305-0.295c-0.005-0.168,0.126-0.309,0.295-0.315
						l26.84-0.899c0.174,0,0.309,0.13,0.315,0.295c0.005,0.168-0.126,0.309-0.295,0.315l-26.84,0.899
						C283.401,444.128,283.397,444.128,283.394,444.128z"/>
				</g>
				<g id="XMLID_1225_">
					<path style="fill:#FFFFFF;" d="M299.912,435.646c-0.023,0-0.045-0.003-0.069-0.008c-1.38-0.319-2.802-0.715-3.695-1.732
						c-0.111-0.127-0.098-0.319,0.028-0.431c0.127-0.111,0.319-0.098,0.431,0.028c0.773,0.881,2.091,1.244,3.373,1.54
						c0.165,0.038,0.267,0.202,0.229,0.366C300.176,435.55,300.051,435.646,299.912,435.646z"/>
				</g>
				<g id="XMLID_1224_">
					<path style="fill:#FFFFFF;" d="M296.654,438.028c-0.034,0-0.068-0.005-0.102-0.017c-1.401-0.495-2.697-1.033-3.165-2.168
						c-0.064-0.156,0.009-0.334,0.166-0.398c0.157-0.065,0.334,0.01,0.398,0.166c0.372,0.901,1.539,1.377,2.805,1.824
						c0.159,0.056,0.242,0.231,0.186,0.39C296.897,437.95,296.78,438.028,296.654,438.028z"/>
				</g>
				<g id="XMLID_1223_">
					<path style="fill:#FFFFFF;" d="M293.182,439.374c-0.039,0-0.078-0.007-0.116-0.023c-0.572-0.234-2.455-1.069-2.681-2.014
						c-0.039-0.164,0.062-0.328,0.226-0.368c0.165-0.043,0.328,0.062,0.368,0.226c0.097,0.407,1.094,1.091,2.319,1.591
						c0.156,0.064,0.231,0.242,0.167,0.398C293.416,439.302,293.302,439.374,293.182,439.374z"/>
				</g>
			</g>
			<path id="XMLID_1220_" style="fill:#F99889;" d="M369.766,434.027c-4.519,4.811-9.133,0.51-9.133,0.51l-1.543-18.126
				l11.966,1.069C371.055,417.48,369.844,430.975,369.766,434.027z"/>
			<g id="XMLID_1214_">
				<g id="XMLID_1219_">
					<path style="fill:#514342;" d="M371.055,442.368c0.008,0.674-0.525,1.229-1.199,1.248c-5.351,0.153-26.63,0.761-26.669,0.76
						c-0.787-0.021-1.417-0.65-1.448-1.436c-0.068-1.698,1.177-3.492,2.731-4.41c3.456-2.04,10.499-1.424,14.395-10.427
						c0.252-0.582,0.991-0.778,1.484-0.379c1.403,1.134,2.487,2.694,3.965,3.756c2.45,1.76,4.509-0.22,6.17,2.259
						C370.908,434.372,371.024,439.878,371.055,442.368z"/>
					<path style="fill:#463C3A;" d="M343.178,444.681c-0.94-0.024-1.706-0.784-1.744-1.729c-0.069-1.717,1.115-3.643,2.881-4.685
						c0.936-0.553,2.132-0.919,3.398-1.306c3.588-1.098,8.052-2.463,10.872-8.979c0.161-0.371,0.478-0.638,0.87-0.735
						c0.383-0.095,0.78-0.008,1.086,0.24c0.654,0.529,1.244,1.151,1.814,1.753c0.667,0.703,1.356,1.431,2.138,1.993
						c1.039,0.746,2,0.771,2.93,0.795c1.142,0.029,2.321,0.06,3.314,1.542c0.347,0.517,0.556,3.476,0.622,8.794
						c0.011,0.835-0.66,1.533-1.496,1.557C369.599,443.929,343.303,444.681,343.178,444.681z M359.758,427.821
						c-0.052,0-0.105,0.006-0.158,0.019c-0.205,0.051-0.372,0.191-0.456,0.385c-2.932,6.774-7.546,8.186-11.254,9.32
						c-1.283,0.393-2.392,0.732-3.266,1.248c-1.555,0.918-2.64,2.656-2.581,4.134c0.025,0.625,0.53,1.127,1.151,1.143
						c0.204-0.004,21.623-0.616,26.653-0.76c0.504-0.014,0.909-0.435,0.902-0.939c-0.072-5.772-0.324-8.166-0.519-8.462
						c-0.817-1.22-1.703-1.243-2.824-1.272c-0.975-0.026-2.079-0.054-3.27-0.91c-0.829-0.596-1.539-1.345-2.225-2.068
						c-0.557-0.588-1.132-1.195-1.755-1.698C360.043,427.869,359.903,427.821,359.758,427.821z"/>
				</g>
				<g id="XMLID_1218_">
					<path style="fill:#FFFFFF;" d="M343.07,443.742c-0.164,0-0.299-0.13-0.305-0.295c-0.005-0.168,0.126-0.309,0.295-0.315
						l26.84-0.898c0.189,0.009,0.309,0.126,0.315,0.295c0.005,0.168-0.126,0.309-0.295,0.315l-26.84,0.898
						C343.077,443.742,343.073,443.742,343.07,443.742z"/>
				</g>
				<g id="XMLID_1217_">
					<path style="fill:#FFFFFF;" d="M359.588,435.261c-0.023,0-0.045-0.002-0.069-0.008c-1.38-0.318-2.802-0.715-3.695-1.732
						c-0.111-0.127-0.098-0.319,0.028-0.431c0.126-0.11,0.32-0.098,0.431,0.028c0.774,0.882,2.091,1.245,3.374,1.54
						c0.164,0.038,0.266,0.202,0.229,0.366C359.852,435.166,359.727,435.261,359.588,435.261z"/>
				</g>
				<g id="XMLID_1216_">
					<path style="fill:#FFFFFF;" d="M356.33,437.643c-0.034,0-0.068-0.005-0.102-0.017c-1.401-0.495-2.697-1.033-3.165-2.168
						c-0.064-0.156,0.01-0.334,0.166-0.398c0.157-0.065,0.335,0.01,0.398,0.166c0.372,0.901,1.539,1.377,2.805,1.824
						c0.159,0.056,0.242,0.231,0.186,0.39C356.573,437.565,356.456,437.643,356.33,437.643z"/>
				</g>
				<g id="XMLID_1215_">
					<path style="fill:#FFFFFF;" d="M352.858,438.989c-0.039,0-0.078-0.007-0.116-0.023c-0.572-0.234-2.456-1.069-2.681-2.014
						c-0.039-0.164,0.062-0.329,0.226-0.368c0.165-0.042,0.329,0.062,0.368,0.226c0.097,0.407,1.094,1.09,2.319,1.591
						c0.156,0.064,0.231,0.242,0.167,0.398C353.092,438.917,352.978,438.989,352.858,438.989z"/>
				</g>
			</g>
		</g>
		<g id="XMLID_1059_">
			<path style="fill:#514342;" d="M372.666,291.325c1.626,44.984,0.82,90.146-0.024,133.228c-0.012,0.635-0.512,1.151-1.146,1.187
				l-14.341,0.821c-0.627,0.036-1.178-0.409-1.271-1.03c-6.706-44.566-25.686-149.895-22.935-156.77
				c2.271-5.674,10.993-11.057,16.893-12.186C357.102,255.187,371.588,261.518,372.666,291.325z"/>
			<path style="fill:#463C3A;" d="M357.083,426.869c-0.751,0-1.388-0.541-1.5-1.292c-1.948-12.943-4.944-31.093-8.116-50.31
				c-7.867-47.652-16.784-101.662-14.8-106.618c2.256-5.638,10.898-11.182,17.119-12.373c3.642-0.699,7.96,0.591,11.544,3.446
				c4.932,3.93,10.955,12.6,11.642,31.591c1.677,46.409,0.734,94.557-0.024,133.246c-0.016,0.788-0.645,1.441-1.434,1.486
				l-14.341,0.822C357.142,426.869,357.113,426.869,357.083,426.869z M351.804,256.701c-0.65,0-1.288,0.058-1.905,0.176
				c-6.065,1.161-14.481,6.539-16.667,12c-1.92,4.799,7.371,61.075,14.835,106.293c3.173,19.219,6.169,37.371,8.118,50.318
				c0.07,0.466,0.482,0.801,0.952,0.771l14.341-0.822c0.471-0.027,0.849-0.417,0.858-0.889c0.758-38.681,1.701-86.82,0.024-133.211
				c-0.678-18.76-6.58-27.287-11.412-31.136C358.114,257.942,354.817,256.701,351.804,256.701z"/>
		</g>
		<g id="XMLID_1110_">
			<path style="fill:#463C3A;" d="M363.233,425.255c-0.157,0-0.29-0.12-0.304-0.28c-1.806-21.761-4.285-44.821-6.682-67.122
				c-2.398-22.305-4.877-45.369-6.683-67.138c-0.014-0.168,0.111-0.316,0.279-0.329c0.151-0.019,0.315,0.11,0.329,0.279
				c1.806,21.761,4.285,44.822,6.682,67.123c2.398,22.304,4.877,45.368,6.683,67.137c0.014,0.168-0.111,0.315-0.279,0.329
				C363.25,425.254,363.241,425.255,363.233,425.255z"/>
		</g>
		<g id="XMLID_1060_">
			<path style="fill:#514342;" d="M313.43,428.16c0.602,0.13,1.206-0.21,1.406-0.793c11.918-34.668,41.252-116.672,44.003-152.212
				c1.045-13.497-4.83-17.99-16.264-17.365c-22.937,1.255-20.543,15.95-43.813,166.023c-0.099,0.636,0.315,1.243,0.943,1.379
				L313.43,428.16z"/>
			<path style="fill:#463C3A;" d="M313.688,428.493c-0.107,0-0.215-0.011-0.323-0.035l-13.724-2.967
				c-0.786-0.171-1.304-0.928-1.18-1.725c3.901-25.159,7.024-46.132,9.779-64.636c6.731-45.202,10.439-70.101,14.893-84.092
				c4.543-14.271,9.884-17.03,19.425-17.552c6.162-0.338,10.47,0.84,13.167,3.598c2.811,2.876,3.93,7.486,3.418,14.095
				c-2.51,32.432-27.207,103.729-40.474,142.032c-1.298,3.746-2.489,7.186-3.545,10.255
				C314.91,428.09,314.325,428.493,313.688,428.493z M344.547,258.04c-0.629,0-1.28,0.019-1.955,0.056
				c-18.843,1.031-20.254,10.504-33.748,101.124c-2.755,18.505-5.879,39.479-9.78,64.64c-0.074,0.478,0.236,0.932,0.706,1.035
				l13.724,2.967c0.45,0.096,0.903-0.157,1.053-0.594c1.055-3.069,2.247-6.51,3.545-10.257
				c13.259-38.277,37.939-109.525,40.444-141.879c0.496-6.423-0.565-10.878-3.247-13.621
				C353.012,259.182,349.486,258.04,344.547,258.04z"/>
		</g>
		<g id="XMLID_1112_">
			<path style="fill:#463C3A;" d="M307.215,423.505c-0.024,0-0.05-0.003-0.075-0.01c-0.163-0.041-0.262-0.207-0.221-0.371
				c12.388-48.779,26.93-102.253,40.949-150.572c0.047-0.162,0.215-0.256,0.379-0.208c0.161,0.047,0.255,0.216,0.208,0.378
				c-14.017,48.313-28.558,101.78-40.944,150.552C307.476,423.414,307.352,423.505,307.215,423.505z"/>
		</g>
		<g id="XMLID_1231_">
			<path style="fill:#ED8554;" d="M385.46,237.779c3.946,10.153,5.168,14.749-4.384,19.839c-13.131,6.997-35.224,8.732-44.315,8.739
				c-0.567,0.001-1.062-0.377-1.219-0.923l-2.178-7.599c-0.179-0.626,0.139-1.286,0.743-1.53c3.444-1.391,15.012-5.85,30.375-9.505
				c0.892-0.212,1.273-1.27,0.72-2.001c-3.372-4.46-12.987-17.384-16.231-23.939c-2.595-5.244-6.723-18.955,0.054-22.649
				C358.654,192.961,382.494,230.148,385.46,237.779z"/>
			<path style="fill:#D6723A;" d="M336.76,266.625c-0.681,0-1.288-0.459-1.476-1.117l-2.178-7.599
				c-0.218-0.76,0.169-1.557,0.901-1.852c3.224-1.302,14.947-5.838,30.412-9.518c0.336-0.08,0.595-0.312,0.711-0.636
				c0.117-0.324,0.064-0.668-0.143-0.942c-3.82-5.053-13.052-17.505-16.258-23.982c-2.798-5.653-6.64-19.294,0.166-23.004
				c1.281-0.699,2.855-0.716,4.676-0.05c11.175,4.085,29.485,32.932,32.138,39.756c3.968,10.209,5.308,14.942-4.507,20.173
				C368.215,264.775,346.453,266.618,336.76,266.625L336.76,266.625z M351.091,197.976c-0.715,0-1.363,0.157-1.939,0.471
				c-6.466,3.526-2.667,16.787,0.058,22.295c3.275,6.617,13.232,19.963,16.205,23.896c0.314,0.416,0.397,0.957,0.22,1.448
				c-0.177,0.491-0.585,0.856-1.092,0.976c-15.428,3.67-27.12,8.194-30.335,9.493c-0.476,0.192-0.728,0.711-0.586,1.207l2.178,7.599
				c0.123,0.429,0.517,0.728,0.96,0.728c9.647-0.008,31.296-1.837,44.189-8.708c9.413-5.016,8.108-9.604,4.26-19.505
				c-2.634-6.777-20.778-35.409-31.822-39.447C352.561,198.127,351.793,197.976,351.091,197.976z"/>
		</g>
		<g id="XMLID_1062_">
			<path style="fill:#FFFFF7;" d="M327.23,200.869c2.201-5.133,18.507-11.874,22.779-11.056c12.325,2.36,14.164,20.84,17.306,75.677
				c-11.972,2.819-44.135,1.393-44.859,0.855C319.948,264.479,322.218,212.558,327.23,200.869z"/>
			<path style="fill:#EEE4D9;" d="M342.72,267.519c-10.504,0-19.938-0.552-20.446-0.93c-2.87-2.134-0.089-54.727,4.676-65.841
				c2.288-5.336,18.676-12.084,23.116-11.235c12.702,2.432,14.429,21.418,17.554,75.959l0.015,0.256l-0.25,0.059
				C361.804,267.101,351.857,267.519,342.72,267.519z M327.511,200.989c-2.575,6.005-4.366,22.699-5.183,36.32
				c-1.013,16.887-0.628,28.093,0.311,28.791c1.32,0.529,32.55,1.808,44.357-0.849c-3.095-53.99-4.807-72.794-17.044-75.137
				C345.749,189.309,329.659,195.981,327.511,200.989L327.511,200.989z"/>
		</g>
		<g id="XMLID_1084_">
			<path style="fill:#444244;" d="M266.227,214.447c-5.951-5.111-6.678-2.761-5.621-1.656c9.818,10.271,14.206,8.774,13.508,7.969
				C271.854,218.156,268.811,216.666,266.227,214.447z"/>
			<path style="fill:#444244;" d="M273.219,221.964c-2.238,0-6.725-2.13-13.053-8.75c-0.658-0.687-0.767-1.613-0.255-2.153
				c0.972-1.027,3.294-0.014,6.715,2.923c0.977,0.839,2.049,1.591,3.087,2.318c1.686,1.182,3.43,2.404,4.864,4.058
				c0.321,0.371,0.29,0.881-0.075,1.213C274.23,221.82,273.801,221.964,273.219,221.964z M260.909,211.898
				c-0.086,0-0.125,0.013-0.127,0.014c0.015,0.018,0.059,0.242,0.265,0.458c6.864,7.181,10.902,8.364,12.217,8.364
				c-1.252-1.328-2.714-2.353-4.253-3.432c-1.061-0.744-2.159-1.513-3.181-2.391C262.625,212.158,261.294,211.898,260.909,211.898z"
				/>
		</g>
		<path id="XMLID_1087_" style="fill:#FDA98B;" d="M289.909,229.702l-4.426,7.386c-7.105-5.417-6.723-5.383-9.316-6.403
			c-1.978-0.778-4.134-1.03-6.101-1.837c-1.966-0.807-3.839-2.406-4.038-4.522c-0.024-0.254-0.025-0.518-0.126-0.752
			c-0.305-0.7-1.448-1.215-1.039-1.86c0.238-0.376,0.89-0.369,1.038-0.789c0.203-0.579-0.823-1.169-0.471-1.671
			c0.077-0.109,0.202-0.171,0.326-0.22c2.13-0.846,4.478,0.921,6.75,0.617c-0.031-0.762-0.994-1.027-1.721-1.256
			c-1.021-0.322-3.525-1.924-3.119-3.289c0.532-1.788,3.276-0.01,4.206,0.279c0.95,0.296,1.957,0.488,2.788,1.036
			c0.706,0.465,1.23,1.153,1.74,1.827c1.686,2.23,3.377,4.467,4.77,6.89C281.905,226.419,282.59,226.486,289.909,229.702z"/>
		<g id="XMLID_1229_">
			<path style="fill:#ED8554;" d="M354.172,185.345c1.469-0.76,3.269-0.028,3.856,1.518c4.287,11.302,12.751,21.023,15.736,32.804
				c3.56,14.051-1.113,29.317,3.045,43.202c3.808,12.718,11.946,9.897,18.809,32.832c0.816,2.726-1.36,5.442-4.196,5.207
				c-15.177-1.256-37.608,7.155-49.183,5.141c-1.869-0.325-3.141-2.068-2.892-3.948c1.415-10.673,4.827-48.572-12.707-78.791
				c-5.989-10.321,0.5-28.843,13.105-33.392C341.127,189.421,349.801,187.609,354.172,185.345z"/>
			<path style="fill:#D6723A;" d="M346.34,306.632c-1.493,0-2.882-0.097-4.147-0.318c-2.014-0.35-3.381-2.215-3.112-4.247
				c1.438-10.842,4.773-48.555-12.673-78.621c-2.845-4.903-3.054-11.918-0.559-18.766c2.635-7.232,7.796-12.845,13.805-15.014
				c0.375-0.135,1.227-0.353,2.408-0.655c3.287-0.841,8.789-2.249,11.986-3.904c0.752-0.39,1.642-0.438,2.442-0.133
				c0.823,0.314,1.475,0.969,1.788,1.794c1.848,4.872,4.525,9.536,7.114,14.046c3.406,5.934,6.93,12.07,8.631,18.787
				c1.727,6.816,1.524,14.012,1.328,20.971c-0.209,7.412-0.425,15.077,1.714,22.22c1.607,5.368,3.988,7.93,6.745,10.897
				c3.802,4.091,8.112,8.729,12.063,21.935c0.411,1.373,0.116,2.858-0.787,3.973c-0.91,1.122-2.25,1.704-3.687,1.578
				c-7.518-0.621-16.785,1.132-25.748,2.829C358.555,305.347,351.766,306.632,346.34,306.632z M355.41,185.309
				c-0.383,0-0.762,0.092-1.115,0.274c-3.251,1.684-8.79,3.101-12.1,3.948c-1.122,0.287-2.009,0.514-2.359,0.641
				c-5.862,2.115-10.903,7.608-13.483,14.692c-2.441,6.7-2.247,13.546,0.519,18.313c17.531,30.213,14.184,68.076,12.741,78.961
				c-0.231,1.745,0.943,3.347,2.672,3.648c5.766,1.003,14.267-0.606,23.267-2.31c8.997-1.702,18.301-3.468,25.892-2.835
				c1.26,0.103,2.43-0.4,3.226-1.382c0.792-0.977,1.05-2.278,0.69-3.481c-3.916-13.087-8.18-17.675-11.942-21.724
				c-2.802-3.016-5.223-5.621-6.866-11.108c-2.164-7.227-1.947-14.935-1.737-22.39c0.195-6.922,0.397-14.08-1.312-20.824
				c-1.684-6.645-5.188-12.749-8.576-18.652c-2.599-4.528-5.287-9.21-7.151-14.123c-0.259-0.682-0.798-1.223-1.478-1.483
				C356.007,185.364,355.708,185.309,355.41,185.309z"/>
		</g>
		<g id="XMLID_1063_">
			<path style="fill:#ED8554;" d="M335.805,248.929c-4.305,10.006-6.656,14.14-17.036,11.072
				c-14.565-4.305-31.944-19.065-38.116-25.225c-0.172-0.172-0.207-0.435-0.091-0.649l4.344-7.992
				c0.134-0.246,0.43-0.353,0.69-0.247c2.487,1.01,14.835,6.185,29.598,15.174c0.466,0.284,1.072,0.003,1.141-0.538
				c0.591-4.617,2.909-21.925,5.313-29.241c1.826-5.559,8.496-18.229,15.918-16.112C348.113,198.178,339.04,241.408,335.805,248.929
				z"/>
			<path style="fill:#D6723A;" d="M324.557,261.273c-1.635,0-3.555-0.332-5.865-1.015c-15.018-4.439-32.688-19.762-38.229-25.292
				c-0.257-0.257-0.312-0.645-0.137-0.967l4.344-7.992c0.199-0.367,0.643-0.525,1.027-0.368c2.348,0.953,14.809,6.165,29.637,15.193
				c0.143,0.088,0.319,0.097,0.47,0.025c0.148-0.071,0.244-0.205,0.266-0.368c0.644-5.031,2.932-22.012,5.323-29.291
				c1.968-5.992,8.802-18.411,16.247-16.286c1.404,0.4,2.538,1.491,3.369,3.243c5.104,10.748-2.064,44.155-4.958,50.88
				C332.659,256.917,330.474,261.273,324.557,261.273z M285.389,226.115c-0.1,0-0.197,0.054-0.248,0.148l-4.344,7.992
				c-0.06,0.111-0.042,0.245,0.045,0.331c5.514,5.503,23.091,20.75,38.002,25.157c10.227,3.024,12.515-1.163,16.713-10.921
				c2.873-6.678,10.01-39.816,4.966-50.438c-0.762-1.606-1.783-2.601-3.031-2.957c-7.092-2.019-13.672,10.1-15.59,15.938
				c-2.377,7.234-4.659,24.173-5.302,29.192c-0.044,0.342-0.255,0.635-0.566,0.784c-0.315,0.151-0.683,0.131-0.981-0.05
				c-14.793-9.007-27.219-14.204-29.559-15.155C285.461,226.122,285.425,226.115,285.389,226.115z"/>
		</g>
		<g id="XMLID_1254_">
			<g id="XMLID_1069_">
				<path style="fill:#30323E;" d="M360.181,183.542c-0.24,0-0.485-0.005-0.735-0.016c-0.168-0.007-0.299-0.15-0.292-0.318
					c0.007-0.168,0.129-0.312,0.318-0.292c8.042,0.346,10.355-5.098,11.732-8.35c0.165-0.389,0.315-0.743,0.458-1.047
					c0.057-0.121,0.184-0.307,0.393-0.614c1.456-2.131,5.885-8.614,1.564-14.586c-0.798-1.104-1.444-1.633-1.964-2.059
					c-1.187-0.973-1.668-1.521-1.666-5.37c0.005-11.146-6.348-12.426-11.452-13.454c-0.896-0.181-1.742-0.351-2.513-0.566
					c-0.163-0.045-0.258-0.213-0.212-0.376c0.045-0.162,0.212-0.258,0.376-0.212c0.75,0.209,1.586,0.377,2.471,0.555
					c5.042,1.016,11.948,2.407,11.942,14.053c-0.002,3.713,0.421,4.06,1.443,4.898c0.547,0.448,1.226,1.006,2.072,2.174
					c3.034,4.193,2.511,9.337-1.555,15.288c-0.166,0.243-0.309,0.453-0.346,0.53c-0.14,0.298-0.287,0.644-0.448,1.026
					C370.462,177.885,368.067,183.541,360.181,183.542z"/>
			</g>
			<g id="XMLID_1076_">
				<path style="fill:#30323E;" d="M359.46,183.526c-3.638-0.391-5.905-3.756-6.677-5.682c-0.681-1.701-0.694-3.694-0.707-5.622
					c-0.002-0.422-0.005-0.836-0.016-1.238c-0.116-4.536-1.691-5.622-3.215-6.67c-0.678-0.467-1.318-0.907-1.797-1.625
					c-1.083-1.621-0.878-3.582-0.68-5.478c0.139-1.336,0.284-2.718-0.023-3.965c-0.474-1.93-2.193-1.683-4.966-1.118
					c-2.057,0.419-4.183,0.852-5.74-0.141c-0.143-0.091-0.184-0.279-0.094-0.422c0.091-0.142,0.281-0.183,0.421-0.093
					c1.35,0.861,3.353,0.452,5.29,0.057c2.48-0.505,5.042-1.028,5.681,1.571c0.332,1.351,0.182,2.786,0.038,4.174
					c-0.196,1.871-0.38,3.639,0.58,5.076c0.414,0.62,1.007,1.028,1.635,1.461c1.573,1.083,3.356,2.31,3.48,7.158
					c0.01,0.405,0.013,0.824,0.016,1.249c0.012,1.871,0.025,3.806,0.663,5.399c0.721,1.8,2.826,4.942,6.143,5.3
					c0.168,0.018,0.289,0.169,0.271,0.336C359.746,183.41,359.613,183.526,359.46,183.526z"/>
			</g>
		</g>
		<path id="XMLID_1089_" style="fill:#30323E;" d="M347.648,156.998c-1.392,7.528,4.4,4.725,5.081,9.461
			c0.719,5.003-1.181,10.85,2.095,14.699c3.81,4.477,13.395,3.207,15.934-6.877c0.295-1.173,0.9-2.233,1.713-3.129
			c3.939-4.335,2.619-11.701-3.192-14.086c-1.887-0.774,4.876-17.634-10.539-20.338c-1.244-0.218-2.39-0.796-3.355-1.611
			c-9.906-8.374-26.172,10.281-20.763,16.38C338.227,155.561,349.926,144.68,347.648,156.998z"/>
		<g id="XMLID_1099_">
			<g id="XMLID_1094_">
				<path style="fill:#353B4A;" d="M337.053,150.041c-0.833,0-1.259-0.367-1.475-0.745c-1.172-2.044,2.036-7.849,5.286-10.69
					c0.126-0.11,0.319-0.099,0.43,0.029c0.111,0.127,0.098,0.32-0.029,0.431c-3.242,2.834-6.087,8.308-5.158,9.927
					c0.371,0.646,1.408,0.461,2.211,0.192l5.107-1.71c0.16-0.052,0.333,0.033,0.387,0.193c0.053,0.16-0.033,0.333-0.193,0.386
					l-5.107,1.71C337.922,149.961,337.443,150.041,337.053,150.041z"/>
			</g>
			<g id="XMLID_1095_">
				<path style="fill:#353B4A;" d="M368.033,171.282c-0.04,0-0.081-0.008-0.12-0.025c-0.155-0.067-0.227-0.246-0.16-0.401
					c0.243-0.565,0.616-1.205,1.012-1.883c1.227-2.104,2.753-4.723,1.381-6.869c-0.658-1.028-1.896-1.606-3.094-2.164
					c-1.486-0.694-3.023-1.411-3.522-3.007c-0.327-1.046-0.063-2.107,0.192-3.133c0.098-0.392,0.198-0.798,0.261-1.188
					c0.859-5.346-3.988-7.056-6.057-7.786c-0.519-0.183-0.775-0.276-0.918-0.389c-1.131-0.891-1.239-2.244-1.344-3.551
					c-0.153-1.906-0.296-3.707-3.383-4.405c-1.647-0.373-3.391-0.391-5.048-0.054c-0.162,0.033-0.326-0.073-0.36-0.238
					c-0.033-0.165,0.073-0.326,0.238-0.36c1.739-0.354,3.573-0.335,5.304,0.056c3.524,0.798,3.701,3.005,3.856,4.952
					c0.099,1.231,0.191,2.394,1.114,3.12c0.073,0.056,0.429,0.182,0.743,0.292c2.023,0.714,7.397,2.609,6.457,8.458
					c-0.067,0.416-0.171,0.835-0.272,1.239c-0.246,0.988-0.478,1.921-0.202,2.804c0.419,1.339,1.768,1.969,3.197,2.636
					c1.276,0.596,2.597,1.211,3.35,2.388c1.574,2.461-0.057,5.258-1.368,7.505c-0.385,0.661-0.749,1.285-0.978,1.817
					C368.263,171.212,368.151,171.282,368.033,171.282z"/>
			</g>
			<g id="XMLID_1097_">
				<path style="fill:#353B4A;" d="M360.835,180.327c-0.44,0-0.865-0.082-1.275-0.246c-1.939-0.775-2.87-3.165-3.024-4.583
					c-0.16-1.487,0.076-2.974,0.305-4.412c0.137-0.858,0.278-1.746,0.33-2.615c0.28-4.632-2.076-5.548-3.634-6.154
					c-0.429-0.167-0.768-0.298-0.999-0.488c-1.3-1.063-1.158-3.025-1.007-5.101c0.084-1.158,0.171-2.355-0.015-3.361
					c-0.206-1.111-0.948-2.219-1.847-2.756c-0.416-0.249-1.068-0.494-1.806-0.257c-0.16,0.05-0.333-0.037-0.384-0.197
					c-0.052-0.16,0.036-0.332,0.197-0.384c0.758-0.243,1.555-0.135,2.306,0.314c1.057,0.631,1.895,1.875,2.134,3.169
					c0.201,1.084,0.111,2.32,0.024,3.517c-0.139,1.914-0.271,3.721,0.784,4.584c0.157,0.128,0.47,0.25,0.834,0.392
					c1.513,0.588,4.329,1.683,4.022,6.759c-0.054,0.899-0.198,1.801-0.337,2.674c-0.233,1.463-0.452,2.845-0.301,4.251
					c0.132,1.222,0.966,3.412,2.643,4.082c1.273,0.51,2.774,0.044,4.459-1.384c0.128-0.108,0.321-0.093,0.43,0.036
					c0.108,0.129,0.093,0.321-0.036,0.43C363.281,179.749,362.006,180.327,360.835,180.327z"/>
			</g>
			<g id="XMLID_1098_">
				<path style="fill:#353B4A;" d="M363.24,172.363c-0.061,0-0.123-0.019-0.177-0.057c-2.649-1.885-2.181-5.314-1.769-8.34
					c0.187-1.37,0.363-2.663,0.252-3.723c-0.374-3.565-3.087-6.322-6.074-9.064c-0.125-0.114-0.132-0.307-0.018-0.431
					c0.115-0.124,0.308-0.132,0.431-0.018c3.077,2.825,5.872,5.674,6.268,9.45c0.119,1.133-0.062,2.462-0.254,3.87
					c-0.408,2.994-0.83,6.089,1.518,7.76c0.137,0.098,0.169,0.288,0.072,0.426C363.429,172.318,363.336,172.363,363.24,172.363z"/>
			</g>
			<g id="XMLID_1100_">
				<path style="fill:#353B4A;" d="M347.002,148.544c-0.128,0-0.247-0.081-0.29-0.209c-0.053-0.16,0.034-0.333,0.194-0.386
					c1.366-0.452,6.701-3.291,5.858-7.959c-0.03-0.166,0.08-0.325,0.246-0.355c0.162-0.03,0.324,0.08,0.355,0.246
					c0.92,5.096-4.802,8.162-6.267,8.647C347.066,148.539,347.033,148.544,347.002,148.544z"/>
			</g>
		</g>
		<g id="XMLID_1104_">
			<path style="fill:#D6723A;" d="M341.794,270.249l-0.542-3.086c-0.114-0.649,18.575-4.158,18.754-3.008l0.368,2.365
				C360.469,267.131,341.996,271.398,341.794,270.249z"/>
			<path style="fill:#D6723A;" d="M342.563,270.712c-0.96,0-1-0.229-1.033-0.417l-0.541-3.085c-0.012-0.069-0.011-0.201,0.133-0.32
				c0.978-0.807,16.968-3.83,18.828-3.121c0.236,0.089,0.306,0.237,0.323,0.345l0.367,2.365c0.043,0.276,0.087,0.562-5.291,1.884
				c-3.178,0.781-6.737,1.529-9.287,1.95C344.285,270.607,343.214,270.712,342.563,270.712z M342.047,270.134
				c1.41,0.615,16.664-2.962,18.041-3.707l-0.336-2.162c-1.201-0.523-16.572,2.004-18.211,2.986L342.047,270.134z"/>
		</g>
		<g id="XMLID_1109_">
			<g id="XMLID_1102_">
				<path style="fill:#D6723A;" d="M391.927,301.335c-0.149,0-0.28-0.11-0.302-0.262c-1.684-11.674-8.258-17.137-13.539-21.527
					c-1.8-1.496-3.354-2.788-4.507-4.157c-7.747-9.202-7.242-19.491-6.602-32.518c0.696-14.191,1.564-31.853-8.618-54.353
					c-0.07-0.153-0.002-0.334,0.152-0.404c0.151-0.069,0.334-0.001,0.404,0.152c10.243,22.635,9.372,40.378,8.673,54.635
					c-0.633,12.893-1.133,23.076,6.46,32.094c1.117,1.328,2.652,2.603,4.43,4.081c5.079,4.221,12.035,10.003,13.753,21.909
					c0.024,0.167-0.092,0.321-0.259,0.346C391.956,301.334,391.942,301.335,391.927,301.335z"/>
			</g>
			<g id="XMLID_1103_">
				<path style="fill:#D6723A;" d="M387.158,301.096c-0.136,0-0.261-0.092-0.296-0.23c-0.123-0.486-0.238-0.954-0.349-1.406
					c-0.994-4.045-1.65-6.718-5.027-9.553l-0.196-0.161c-1.048-0.856-3.831-3.13-4.12-6.074c-0.14-1.428,0.333-2.812,1.408-4.112
					c0.108-0.13,0.301-0.148,0.43-0.041c0.13,0.107,0.148,0.3,0.041,0.43c-0.967,1.171-1.394,2.403-1.271,3.664
					c0.264,2.691,2.904,4.849,3.899,5.661l0.202,0.167c3.529,2.963,4.242,5.863,5.228,9.875c0.11,0.451,0.225,0.917,0.348,1.402
					c0.042,0.163-0.057,0.33-0.221,0.371C387.208,301.093,387.182,301.096,387.158,301.096z"/>
			</g>
			<g id="XMLID_1105_">
				<path style="fill:#D6723A;" d="M376.532,270.413c-0.043,0-0.086-0.009-0.127-0.028c-0.153-0.07-0.221-0.251-0.151-0.405
					c0.918-2.009,1.013-4.351,0.259-6.425c-0.058-0.159,0.024-0.334,0.182-0.392c0.159-0.057,0.334,0.025,0.391,0.183
					c0.808,2.224,0.707,4.735-0.277,6.888C376.759,270.346,376.648,270.413,376.532,270.413z"/>
			</g>
			<g id="XMLID_1106_">
				<path style="fill:#D6723A;" d="M320.687,248.005c-0.032,0-0.064-0.005-0.096-0.015c-2.289-0.761-4.094-2.777-4.597-5.136
					c-0.035-0.165,0.07-0.327,0.235-0.362c0.162-0.036,0.327,0.069,0.362,0.234c0.459,2.152,2.105,3.99,4.192,4.684
					c0.16,0.053,0.247,0.226,0.194,0.386C320.934,247.924,320.815,248.005,320.687,248.005z"/>
			</g>
		</g>
	</g>
	<g id="XMLID_221_">
		<g id="XMLID_1166_">
			<path style="fill:#514342;" d="M432.029,105.183h-51.453c-6.18,0-11.19,6.575-11.19,14.685v7.98
				c0,7.413,4.579,13.423,10.228,13.423c0.454,0,0.759,0.609,0.579,1.157c-0.82,2.504-1.615,5.052-2.53,7.391
				c-0.264,0.673,0.224,1.425,0.778,1.212c2.876-1.105,5.726-3.098,8.503-5.193c3.941-2.973,8.389-4.567,12.934-4.567
				c8.443,0,22.856,0,32.151,0c4.89,0,8.854-5.203,8.854-11.62v-12.848C440.884,110.385,436.919,105.183,432.029,105.183z"/>
			<path style="fill:#463C3A;" d="M378.252,151.983c-0.384,0-0.759-0.155-1.05-0.449c-0.512-0.515-0.668-1.339-0.39-2.049
				c0.745-1.904,1.425-3.998,2.082-6.022l0.417-1.281c-6.005-0.208-10.84-6.558-10.84-14.333v-7.98
				c0-8.602,5.431-15.601,12.106-15.601h51.453c5.387,0,9.77,5.624,9.77,12.536v12.848c0,6.912-4.383,12.536-9.77,12.536h-32.151
				c-4.299,0-8.581,1.516-12.383,4.383c-2.755,2.078-5.719,4.161-8.726,5.317C378.6,151.951,378.425,151.983,378.252,151.983z
				 M380.576,106.099c-5.665,0-10.274,6.177-10.274,13.769v7.98c0,6.896,4.178,12.507,9.312,12.507c0.469,0,0.906,0.231,1.198,0.634
				c0.346,0.478,0.443,1.139,0.251,1.724l-0.429,1.315c-0.647,1.993-1.316,4.051-2.055,5.96c2.643-1.109,5.312-2.995,7.812-4.881
				c4.122-3.109,8.785-4.752,13.486-4.752h32.151c4.377,0,7.939-4.802,7.939-10.704v-12.848c0-5.902-3.561-10.704-7.939-10.704
				H380.576z"/>
		</g>
		<g id="XMLID_1048_">
			<path id="XMLID_1164_" style="opacity:0.5;fill:#FEFFFF;" d="M427.637,117.045h3.615c0.396,0,0.716-0.321,0.716-0.716v-3.615
				c0-0.396-0.321-0.717-0.716-0.717h-3.615c-0.396,0-0.716,0.321-0.716,0.717v3.615
				C426.921,116.724,427.241,117.045,427.637,117.045z"/>
			<path id="XMLID_1124_" style="fill:#D6723A;" d="M403.082,117.045h15.593c1.394,0,2.524-1.13,2.524-2.524
				c0-1.394-1.13-2.524-2.524-2.524h-15.593c-1.394,0-2.524,1.13-2.524,2.524C400.558,115.915,401.688,117.045,403.082,117.045z"/>
			<path id="XMLID_1119_" style="opacity:0.5;fill:#FEFFFF;" d="M382.44,117.045h8.414c1.394,0,2.524-1.13,2.524-2.524
				c0-1.394-1.13-2.524-2.524-2.524h-8.414c-1.394,0-2.524,1.13-2.524,2.524C379.916,115.915,381.046,117.045,382.44,117.045z"/>
			<path id="XMLID_1118_" style="opacity:0.5;fill:#FEFFFF;" d="M430.689,124.224h3.615c0.396,0,0.717-0.321,0.717-0.716v-3.615
				c0-0.396-0.321-0.716-0.717-0.716h-3.615c-0.396,0-0.716,0.321-0.716,0.716v3.615
				C429.973,123.904,430.293,124.224,430.689,124.224z"/>
			<path id="XMLID_1117_" style="opacity:0.5;fill:#FEFFFF;" d="M406.134,124.224h15.593c1.394,0,2.524-1.13,2.524-2.524
				c0-1.394-1.13-2.524-2.524-2.524h-15.593c-1.394,0-2.524,1.13-2.524,2.524C403.61,123.094,404.74,124.224,406.134,124.224z"/>
			<path id="XMLID_1082_" style="fill:#D6723A;" d="M385.492,124.224h8.414c1.394,0,2.524-1.13,2.524-2.524
				c0-1.394-1.13-2.524-2.524-2.524h-8.414c-1.394,0-2.524,1.13-2.524,2.524C382.968,123.094,384.098,124.224,385.492,124.224z"/>
			<path id="XMLID_1080_" style="opacity:0.5;fill:#FEFFFF;" d="M427.637,131.404h3.615c0.396,0,0.716-0.321,0.716-0.717v-3.615
				c0-0.396-0.321-0.717-0.716-0.717h-3.615c-0.396,0-0.716,0.321-0.716,0.717v3.615
				C426.921,131.083,427.241,131.404,427.637,131.404z"/>
			<path id="XMLID_1056_" style="fill:#D6723A;" d="M403.082,131.404h15.593c1.394,0,2.524-1.13,2.524-2.524
				s-1.13-2.524-2.524-2.524h-15.593c-1.394,0-2.524,1.13-2.524,2.524S401.688,131.404,403.082,131.404z"/>
			<path id="XMLID_1049_" style="opacity:0.5;fill:#FEFFFF;" d="M382.44,131.404h8.414c1.394,0,2.524-1.13,2.524-2.524
				s-1.13-2.524-2.524-2.524h-8.414c-1.394,0-2.524,1.13-2.524,2.524S381.046,131.404,382.44,131.404z"/>
		</g>
	</g>
	<g id="XMLID_265_">
		<g id="XMLID_1318_">
			<path id="XMLID_1173_" style="fill:#FEAE65;" d="M420.978,361.431c-0.104,1.024-5.735,1.827-12.657,1.827
				c-6.994,0-12.664-0.815-12.664-1.827c0-0.02,0-0.039,0.013-0.059c0.007-0.039,0.026-0.078,0.039-0.111
				c0.659-0.946,6.055-1.664,12.611-1.664c6.426,0,11.737,0.692,12.546,1.592C420.939,361.268,420.978,361.346,420.978,361.431z"/>
			<path id="XMLID_1319_" style="fill:#FEAE65;" d="M421.852,366.259c0,7.483-6.067,13.551-13.551,13.551
				c-7.477,0-13.544-6.068-13.544-13.551c0-1.722,0.32-3.373,0.913-4.887c0.007-0.039,0.026-0.078,0.039-0.111
				c0.659-0.946,6.055-1.664,12.611-1.664c6.426,0,11.737,0.692,12.546,1.592c0.039,0.085,0.072,0.176,0.104,0.268
				C421.539,362.951,421.852,364.569,421.852,366.259z"/>
		</g>
		<g id="XMLID_1306_">
			<path id="XMLID_1317_" style="fill:#76A699;" d="M409.581,355.043c-4.248-4.581-6.58-8.537-6.955-18.448
				c-0.347-9.179,8.167-15.076,11.077-2.915C416.623,345.876,409.645,355.626,409.581,355.043z"/>
			<path id="XMLID_1316_" style="fill:#76A699;" d="M416.994,344.965c0.333-3.54,2.749-11.66,6.58-16.283
				c3.831-4.623,15.491-6.622,8.537,3.914C425.156,343.132,416.994,344.965,416.994,344.965z"/>
			<path id="XMLID_1315_" style="fill:#76A699;" d="M414.745,354.543c3.165-6.621,6.746-8.995,12.243-10.703
				s13.742,0.083,10.453,5.122C434.151,354.001,414.745,354.543,414.745,354.543z"/>
			<path id="XMLID_1314_" style="fill:#76A699;" d="M404.209,355.889c-0.722-5.192-4.053-14.881-10.383-17.99
				c-6.33-3.109-10.05-1.332-7.385,5.219c0.92,2.262,3.69,5.75,6.441,7.69C398.101,354.489,404.209,355.889,404.209,355.889z"/>
			<g id="XMLID_1307_">
				<g id="XMLID_1312_">
					<path id="XMLID_1313_" style="fill:#58857A;" d="M409.207,361.805c-0.043,0-0.086-0.009-0.127-0.026
						c-0.167-0.069-0.246-0.261-0.176-0.429c1.763-4.216,0.101-18.602-0.688-23.79c-0.027-0.179,0.096-0.346,0.275-0.374
						c0.176-0.026,0.346,0.096,0.374,0.275c0.029,0.189,2.839,18.894,0.645,24.142C409.457,361.729,409.335,361.805,409.207,361.805
						z"/>
				</g>
				<g id="XMLID_1310_">
					<path id="XMLID_1311_" style="fill:#58857A;" d="M409.248,361.784c-0.039,0-0.078-0.007-0.116-0.021
						c-0.148-0.056-0.235-0.209-0.207-0.365c1.888-10.487,16.105-28.424,17.243-29.61c0.126-0.132,0.333-0.135,0.464-0.01
						c0.131,0.126,0.135,0.333,0.01,0.464c-0.938,0.978-13.702,17.137-16.657,27.515c2.189-3.101,7.665-9.864,14.335-10.784
						c0.181-0.02,0.345,0.101,0.37,0.28c0.025,0.179-0.101,0.345-0.28,0.37c-8.199,1.13-14.815,11.896-14.881,12.004
						C409.468,361.726,409.36,361.784,409.248,361.784z"/>
				</g>
				<g id="XMLID_1308_">
					<path id="XMLID_1309_" style="fill:#58857A;" d="M406.985,361.825c-0.146,0-0.279-0.098-0.317-0.245
						c-0.593-2.274-5.908-12.488-15.224-17.732c-0.158-0.089-0.214-0.289-0.125-0.446c0.089-0.157,0.288-0.216,0.447-0.125
						c9.498,5.346,14.929,15.806,15.536,18.138c0.046,0.176-0.059,0.354-0.235,0.4C407.041,361.822,407.013,361.825,406.985,361.825
						z"/>
				</g>
			</g>
		</g>
		<path id="XMLID_1305_" style="fill:#9E653B;" d="M432.314,398.72l-10.083-23.914c0.121-0.053,0.243-0.098,0.363-0.152
			c0.657-0.297,0.949-1.07,0.652-1.727c-0.297-0.657-1.069-0.948-1.727-0.652c-8.169,3.689-17.54,3.689-25.71,0
			c-0.658-0.296-1.43-0.004-1.727,0.652c-0.296,0.657-0.005,1.43,0.652,1.727c0.253,0.114,0.51,0.213,0.765,0.321l-10.012,23.746
			c-0.281,0.664,0.031,1.43,0.695,1.709c0.166,0.07,0.338,0.103,0.507,0.103c0.509,0,0.993-0.3,1.203-0.798l10.048-23.83
			c3.137,1.048,6.389,1.616,9.655,1.72v24.214c0,0.721,0.584,1.305,1.305,1.305c0.721,0,1.305-0.584,1.305-1.305v-24.226
			c3.25-0.148,6.481-0.769,9.594-1.854l10.109,23.977c0.21,0.498,0.694,0.798,1.203,0.798c0.169,0,0.341-0.033,0.507-0.103
			C432.282,400.15,432.594,399.384,432.314,398.72z"/>
		<g id="XMLID_1303_">
			<path id="XMLID_1304_" style="fill:#9E653B;" d="M406.056,362.346c-0.019,0-0.039-0.002-0.057-0.005
				c-0.095-0.017-0.178-0.074-0.226-0.158c-0.106-0.183-0.327-0.261-0.493-0.295c-0.407-0.083-0.826,0.02-0.908,0.081
				c-0.144,0.105-0.352,0.082-0.46-0.06c-0.109-0.142-0.089-0.342,0.051-0.453c0.273-0.218,0.895-0.316,1.414-0.217
				c0.301,0.056,0.552,0.172,0.74,0.341c0.584-0.358,2.043-1.041,3.632-0.114c0.572-0.317,1.623-0.579,2.508,0.203
				c0.136,0.12,0.149,0.327,0.029,0.463c-0.12,0.136-0.327,0.148-0.463,0.028c-0.856-0.756-1.841-0.072-1.883-0.041
				c-0.109,0.078-0.256,0.082-0.37,0.006c-1.722-1.13-3.288,0.134-3.303,0.146C406.205,362.32,406.131,362.346,406.056,362.346z"/>
		</g>
		<g id="XMLID_1301_">
			<path id="XMLID_1302_" style="fill:#D16A4B;" d="M408.547,363.865c-4.535,0-9.031-0.594-11.201-1.788
				c-0.159-0.087-0.216-0.286-0.129-0.445c0.087-0.159,0.286-0.217,0.446-0.129c4.247,2.335,17.667,2.309,22.092-0.044
				c0.16-0.084,0.358-0.024,0.444,0.135c0.085,0.16,0.024,0.359-0.136,0.444C417.774,363.254,413.141,363.865,408.547,363.865z"/>
		</g>
	</g>
</g>
</svg>
